<svg xmlns="http://www.w3.org/2000/svg" viewBox="0 0 512 512" style="height: 512px; width: 512px;"><path d="M0 0h512v512H0z" fill="#000" fill-opacity="1"></path><g class="" transform="translate(0,0)" style=""><path d="M388.53 21.53c-38.006 30.546-63.492 66.122-83.952 103.687 12.746 7.812 25.587 14.923 38.516 21.38l88.744 34.04c13.746 3.8 27.583 6.995 41.51 9.625 13.493-42.908 19.872-85.824 19.433-128.73l-104.25-40zm-266.813 3.88l15.133 64.967 68.95 16.38-12.993-64.525-71.09-16.822zm-17.594 6.848L66.896 79.803l12.358 62.025 39.494-46.785-14.625-62.785zm27.783 76.148l-37.094 43.97 52.165 7.718c7.243-2.11 14.482-4.097 21.716-5.967l27.62-30.408-64.407-15.314zm170.57 37.346l8.776 58.912c5.91 6.06 11.636 12.256 17.13 18.615l89.024 34.157 45.317-50.218c-54.72-11.1-108.31-30.82-160.248-61.468zm-70.09 13.482c-49.324 9.35-98.335 21.9-147.224 42.645 40.825 34.878 76.848 72.364 105.988 113.538l149.204-44.686c-26.533-41.862-66.002-77.02-107.97-111.498zM65.71 209.848C45.093 260.13 28.07 311.115 24.24 367.025c24.535 52.892 70.202 90.623 110.764 119.72l42.476-158.45c-29.975-42.853-68.05-81.942-111.77-118.447zM351.07 287.03L195.39 333.66l-42.146 157.22c52.167-7.854 103.99-21.873 155.822-48.26 24.952-53.52 30.504-99.728 42.002-155.587z" fill="#fff" fill-opacity="1"></path></g><g class="" transform="translate(316,1)" style=""><g transform="translate(9.6, 9.6) scale(0.7, 0.7) rotate(0, 128, 128)"><circle cx="128" cy="128" r="128" fill="#000" fill-opacity="1"></circle><circle stroke="#fff" stroke-opacity="1" fill="#000" fill-opacity="1" stroke-width="18" cx="128" cy="128" r="101"></circle><path fill="#fff" fill-opacity="1" d="M150.094 59.7L139.07 78.695c-7.27-1.615-15.652-1.322-22.142.234l-10.791-19.054L80.33 74.858 91.5 94.554a48.133 48.133 0 0 0-9.938 18.63l-23.52.105-.197 29.834 25.035-.119a49.2 49.2 0 0 0 9.666 15.859L79.5 181.36l25.61 14.852 13.108-22.596a47.62 47.62 0 0 0 18.542.3l13.102 22.58 25.623-15.283c-4.08-7.22-8.161-14.44-12.244-21.66a48.554 48.554 0 0 0 10.252-16.378l24.464-.092.198-29.834-23.235-.156a48.717 48.717 0 0 0-10.387-19.304l11.172-19.24zm-19.705 44.292c12.71 1.043 22.352 12.16 21.787 25.043-.584 13.297-11.839 23.598-25.137 23.015-13.3-.582-23.855-11.836-23.018-25.121.905-14.35 13.161-24.021 26.368-22.937z"></path></g></g></svg>