<svg xmlns="http://www.w3.org/2000/svg" viewBox="0 0 512 512" style="height: 512px; width: 512px;"><path d="M0 0h512v512H0z" fill="#000" fill-opacity="1"></path><g class="" transform="translate(0,0)" style=""><path d="M30.875 36.063L88.25 300.625 202.406 400.97l24.688-76.814L30.874 36.062zm102 42.343L333.72 198.344l96.374 2.375-46.78-68.345-250.44-53.97zm3.5 42.28l202 284.595 149.5 78.626L440.78 365.78 136.376 120.69z" fill="#fff" fill-opacity="1"></path></g><g class="" transform="translate(282,10)" style=""><g transform="translate(6.4, 6.4) scale(0.8, 0.8) rotate(0, 128, 128)"><circle cx="128" cy="128" r="128" fill="#000" fill-opacity="1"></circle><circle stroke="#fff" stroke-opacity="1" fill="#000" fill-opacity="1" stroke-width="18" cx="128" cy="128" r="101"></circle><path fill="#fff" fill-opacity="1" d="M164 59v16H92V59zm-10 25c0 16-10 40-26 40s-26-24-26-40zm-26 48c16 0 26 24 26 40h-52c0-16 10-40 26-40zm36 49v16H92v-16z"></path></g></g></svg>