<svg xmlns="http://www.w3.org/2000/svg" viewBox="0 0 512 512" style="height: 512px; width: 512px;"><path d="M0 0h512v512H0z" fill="#000" fill-opacity="1"></path><g class="" transform="translate(0,0)" style=""><path d="M20.72 19.34v39.72L151.6 132.9l94.9-45.12L151 19.34H20.72zm196.98.1L313 76.78C226.5 118 135.1 161.4 57.53 198.3l161.57 86.1 59.6-39.2-39.4-34.9c82.3-40.6 168.3-83.5 241.8-119.93l-93.6-70.93H217.7zM361.9 170.5l-76.5 37.9 44.9 25.3c-54.2 35.6-111.8 73.6-160.6 105.7l325.2 154.8L307.5 347c57.6-32.3 117.5-65.9 168.8-94.6l-114.4-81.9zm13.2 160.1l-33.9 18.9 139.3 74.3c-35.1-31.1-70.3-62.2-105.4-93.2z" fill="#fff" fill-opacity="1"></path></g><g class="" transform="translate(15,260)" style=""><g transform="translate(3.2, 3.2) scale(0.9, 0.9) rotate(0, 128, 128)"><circle cx="128" cy="128" r="128" fill="#000" fill-opacity="1"></circle><circle stroke="#fff" stroke-opacity="1" fill="#000" fill-opacity="1" stroke-width="18" cx="128" cy="128" r="101"></circle><path fill="#fff" fill-opacity="1" d="M128 53.346l8.997 46.964 34.883-32.706-20.325 43.283L199 104.93 157.115 128 199 151.07l-47.445-5.957 20.325 43.283-34.883-32.706L128 202.654l-8.997-46.964-34.883 32.706 20.325-43.283L57 151.07 98.885 128 57 104.93l47.445 5.957L84.12 67.604l34.883 32.706z"></path></g></g></svg>