<svg xmlns="http://www.w3.org/2000/svg" viewBox="0 0 512 512" style="height: 512px; width: 512px;"><path d="M0 0h512v512H0z" fill="#000" fill-opacity="1"></path><g class="" transform="translate(0,0)" style=""><path d="M255.5 22.406c-129.203 0-233.938 104.734-233.938 233.938 0 45.56 13.034 88.074 35.563 124.03-11.252-26.148-17.5-54.945-17.5-85.218 0-119.205 96.64-215.844 215.844-215.844s215.843 96.637 215.843 215.844c0 30.397-6.318 59.298-17.657 85.53 22.654-36.024 35.78-78.644 35.78-124.342C489.44 127.138 384.704 22.406 255.5 22.406zm-.03 90.22l-67.72 198.093-27.094-7.533v-63.03H141.97v57.812l-56.095-15.595V479.03l72.656-76.78 37.657 29 13.875 60.563h90.844l13.875-60.594 37.626-28.97 72.656 76.78V282.376L368.97 297.97v-57.814h-18.69v63.03l-27.092 7.533-67.72-198.095zm0 124.436c16.905.022 33.81 32.695 33.81 97.938h-67.624c0-65.33 16.906-97.96 33.813-97.938z" fill="#fff" fill-opacity="1"></path></g><g class="" transform="translate(282,10)" style=""><g transform="translate(6.4, 6.4) scale(0.8, 0.8) rotate(0, 128, 128)"><circle cx="128" cy="128" r="128" fill="#000" fill-opacity="1"></circle><circle stroke="#fff" stroke-opacity="1" fill="#000" fill-opacity="1" stroke-width="18" cx="128" cy="128" r="101"></circle><path fill="#fff" fill-opacity="1" d="M164 59v16H92V59zm-10 25c0 16-10 40-26 40s-26-24-26-40zm-26 48c16 0 26 24 26 40h-52c0-16 10-40 26-40zm36 49v16H92v-16z"></path></g></g></svg>