<svg style="height: 512px; width: 512px;" xmlns="http://www.w3.org/2000/svg" viewBox="0 0 512 512"><path d="M0 0h512v512H0z" fill="#000" fill-opacity="1"></path><g class="" style="" transform="translate(0,0)"><path d="M257.75 16.03A60 60 0 0 0 196 76a60 60 0 0 0 120 0 60 60 0 0 0-58.25-59.97zM250.72 166c-24.72.11-24.72 1.875-24.72 30v210h-60l90 90 90-90h-60V196c0-30 0-30-30-30-1.875 0-3.633-.007-5.28 0z" fill="#fff" fill-opacity="1"></path></g><g font-family="Arial, Helvetica, sans-serif" font-size="100" font-style="normal" font-weight="bold" text-anchor="middle" text-decoration=" rgba(255, 255, 255, 1)" class="" style="" transform="translate(109,263)"><g><text stroke="rgba(0, 0, 0, 1)" stroke-width="25"><tspan x="0" y="0">▯</tspan></text><text fill="rgba(255, 255, 255, 1)"><tspan x="0" y="0">▯</tspan></text></g></g></svg>