<svg xmlns="http://www.w3.org/2000/svg" viewBox="0 0 512 512"><path d="M0 0h512v512H0z" fill="#000" fill-opacity="1"></path><g class="" transform="translate(0,0)" style=""><path d="M 312.566 462.563 C 322.791 460.708 335.598 454.486 338.602 442.105 L 344.038 395.549 C 338.662 398.912 330.977 401.181 323.787 401.777 L 312.566 462.563 M 308.767 463.202 L 305.834 462.661 L 317 402.171 C 298.203 402.527 279.377 397.757 262.504 392.069 L 239.689 453.218 C 261.631 460.277 284.912 465.811 308.767 463.202 M 233.403 451.072 L 256.273 389.874 C 248.691 387.204 240.876 383.871 233.592 380.5 L 205.391 439.705 C 214.342 443.754 223.948 447.789 233.403 451.072 M 199.381 436.903 L 227.591 377.664 C 210.532 369.551 194.208 359.876 179.545 349.449 L 141.398 403.047 C 159.38 415.334 178.866 427.397 199.381 436.903 M 136.019 399.191 L 174.167 345.601 C 159.555 334.809 144.799 322.342 132.707 308.546 L 86.662 353.837 L 84.522 351.666 C 99.02 368.946 116.613 385.341 136.019 399.19 M 82.306 348.851 L 128.412 303.497 C 122.952 297.142 118.133 290.281 114.647 283.272 L 67.224 322.388 L 65.102 319.822 C 69.55 330.138 74.644 339.751 82.306 348.851 M 63.968 316.513 L 111.693 277.128 C 108.764 270.51 106.91 263.306 107.357 256.176 L 69.745 283.32 C 60.505 291.697 60.08 304.949 63.968 316.513 M 325.044 394.981 C 331.99 394.152 340.288 391.5 345.162 386.074 L 351.732 330.441 C 347.25 332.569 341.56 333.995 336.241 334.269 L 325.044 394.981 M 318.221 395.531 L 329.472 334.499 C 298.523 333.15 269.584 321.193 241.662 305.311 L 209.272 360.469 C 240.865 377.565 277.435 395.311 318.221 395.531 M 203.536 357.122 L 235.994 301.925 C 216.094 289.654 197.392 275.551 182.794 259.262 L 137.439 303.915 C 156.027 324.011 177.837 342.145 203.536 357.122 M 133.148 298.831 L 178.439 254.249 C 169.384 243.091 161.286 230.426 160.596 217.747 L 115.28 250.439 C 110.037 263.558 121.132 284.662 133.148 298.831 M 352.723 322.034 L 359.499 264.697 C 356.16 265.785 352.515 266.425 348.728 266.553 L 337.49 327.502 C 341.155 327.118 348.543 325.732 352.723 322.034 M 330.696 327.866 L 342.023 266.479 C 325.769 265.196 309.099 260.136 294.266 252.871 L 266.677 310.819 C 285.94 318.899 305.491 327.235 330.696 327.866 M 260.716 307.964 L 288.296 250.027 C 284.596 248.166 281.016 246.321 277.529 244.331 L 245.027 299.598 C 250.139 302.486 255.249 305.335 260.716 307.964 M 239.342 296.228 L 271.819 240.995 C 252.114 228.657 220.265 205.994 214.002 179.233 L 167.499 212.764 C 162.642 234.239 202.849 275.656 239.342 296.228 M 360.386 257.127 L 367.216 199.46 C 358.507 200.884 347.055 198.925 335.941 195.069 L 314.086 253.693 C 326.366 257.88 348.072 263.512 360.386 257.127 M 307.878 251.437 L 329.758 192.745 C 327.793 191.955 325.934 191.159 324.048 190.289 L 297.104 246.897 C 300.6 248.496 304.221 250.029 307.878 251.437 M 291.139 244.055 L 318.085 187.413 C 301.774 179.335 283.521 166.127 273.544 152.004 L 226.096 191.213 C 239.882 211.768 264.704 231.101 291.139 244.055 M 222.87 185.271 L 269.94 146.403 C 268.931 144.539 267.994 142.641 267.347 140.69 L 220.192 174.721 C 220.267 178.123 221.176 181.987 222.87 185.271 M 368.047 192.507 L 375.157 132.294 C 370.667 132.012 365.343 130.861 360.565 129.087 L 338.255 188.861 C 346.9 191.456 356.685 194.85 368.047 192.507 M 332.06 186.54 L 354.419 126.577 C 350.448 124.734 346.452 122.668 342.727 120.281 L 305.581 172.39 C 313.374 177.615 322.525 182.623 332.06 186.54 M 300.17 168.596 L 337.26 116.56 C 335.43 115.209 333.683 113.793 332.019 112.345 L 286.627 157.04 C 290.658 161.037 295.107 164.944 300.17 168.596 M 282.118 152.183 L 327.273 107.735 C 325.336 105.63 323.552 103.441 322.155 101.137 L 273.024 136.596 C 274.455 141.945 278.167 147.627 282.118 152.183 M 375.902 125.683 L 378.853 100.992 C 374.886 101.596 370.975 100.522 367.448 99.194 L 357.237 120.589 C 362.569 122.917 369.181 125.338 375.902 125.683 M 351.314 117.642 L 361.446 96.397 C 358.648 94.823 355.944 93.041 353.652 91.052 L 336.742 107.693 C 340.926 111.205 346.058 114.802 351.314 117.642 M 331.98 103.103 L 349.057 86.294 C 348.287 85.28 347.589 84.23 347.099 83.136 L 327.534 97.244 C 328.706 99.235 330.252 101.221 331.98 103.103 M 384.116 56.414 L 352.742 79.057 C 353.325 84.588 370.649 96.316 378.316 94.276 L 384.116 56.414z" fill="#fff" fill-opacity="1" transform="translate(0, 0) scale(1, 1) rotate(360, 256, 256) skewX(0) skewY(0)"></path></g></svg>
