<svg xmlns="http://www.w3.org/2000/svg" viewBox="0 0 512 512"><path d="M0 0h512v512H0z" fill="#000" fill-opacity="1"></path><g class="" transform="translate(0,0)" style="transform: translate(-33%,-10%);"><path d="M 257.249 329.827 L 263.035 379.793 C 263.003 397.006 276.544 428.182 299.294 443.965 L 291.532 374.072 C 275.192 361.672 263.169 345.247 257.246 329.824 M 294.76 376.044 L 302.31 445.955 C 310.212 452.327 322.256 459.337 334.747 463.67 L 327.1 392.996 C 316.171 388.7 304.633 383.434 294.761 376.045 M 330.119 393.987 L 337.901 464.843 C 340.072 465.687 342.183 466.653 344.566 467.135 L 336.733 395.944 C 334.495 395.399 332.267 394.723 330.117 393.986 M 339.753 396.946 L 347.466 467.994 C 377.482 477.23 424.765 477.23 461.526 466.962 L 453.933 395.289 C 416.681 403.907 378.643 408.407 339.753 396.946 M 456.704 394.616 L 464.461 466.048 C 473.237 463.331 484.01 460.551 492.506 455.97 L 484.727 384.582 C 475.63 388.405 466.616 392.023 456.704 394.616 M 487.843 383.418 L 495.341 454.805 C 497.667 453.934 499.98 452.835 502.135 451.593 L 494.377 380.097 C 492.334 381.313 490.172 382.334 487.843 383.418 M 497.203 378.934 L 504.94 450.278 C 522.127 441.701 543.284 428.789 557.53 413.505 L 549.851 342.131 C 534.767 356.401 517.079 369.261 497.205 378.935 M 552.268 339.868 L 559.981 411.253 C 561.592 409.642 563.149 408.14 564.467 406.511 L 556.649 335.134 C 555.279 336.788 553.852 338.443 552.267 339.868 M 558.88 333.001 L 566.83 403.713 C 574.206 394.927 581.712 386.106 586.977 375.16 L 579.067 305.017 C 573.781 314.7 566.493 324.855 558.88 333.001 M 589.251 370.592 C 594.786 358.153 601.796 338.398 600.012 315.392 L 593.616 261.981 C 592.354 274.98 587.32 289.828 581.47 300.412 L 589.25 370.591 M 414.767 397.127 C 451.103 393.514 525.605 371.907 564.15 317.63 C 607.021 263.871 586.969 203.025 552.745 178.306 C 484.46 128.346 396.302 152.201 359.831 168.278 C 298.294 195.241 267.179 242.604 259.919 271.299 C 241.898 354.329 314.104 404.164 414.767 397.127 L 413.38 371.176 C 406.058 371.877 398.737 371.94 391.288 371.749 C 388.232 370.349 386.768 368.948 386.832 365.956 L 382.566 365.701 C 381.164 369.586 378.171 370.987 373.588 369.713 C 358.434 367.031 345.446 361.874 332.973 354.931 C 329.993 352.013 331.072 348.958 331.987 347.695 L 330.452 346.617 C 327.653 348.94 325.421 350.807 319.602 345.5 C 285.306 314.159 292.657 281.325 297.639 265.154 C 300.463 259.765 304.87 261.918 305.309 261.619 L 306.025 259.736 C 302.382 257.48 302.529 253.875 303.572 251.679 C 310.591 239.493 319.484 225.497 332.322 215.908 C 334.309 215.137 335.993 215.064 339.067 217.443 L 342.213 214.736 C 339.815 210.655 341.48 208.349 344.5 206.208 C 373.763 186.11 407.878 172.725 454.365 174.246 C 455.747 174.868 459.54 176.463 458.975 180.525 L 463.181 180.978 C 464.325 178.179 465.89 175.951 471.94 176.854 C 484.629 178.764 499.192 182.82 513.175 191.822 C 514.762 193.082 515.786 196.354 513.903 198.712 L 515.441 199.789 C 517.606 196.803 520.843 196.779 524.01 199.125 C 532.668 204.32 563.006 235.801 547.36 282.23 C 546.561 284.046 544.595 284.9 540.437 284.516 L 539.853 286.21 C 542.195 286.755 544.141 291.186 541.562 295.289 C 534.391 307.312 526.901 319.898 513.714 329.828 C 511.183 331.165 509.407 330.202 506.91 328.728 L 503.631 331.376 C 505.196 332.939 505.226 336.55 502.368 338.957 C 481.784 352.858 454.017 367.854 413.38 371.176 M 392.903 366.534 C 421.87 368.157 466.05 359.428 498.816 334.988 L 489.044 328.224 C 484.559 323.249 488.065 320.802 489.941 319.008 C 500.135 313.707 504.213 320.721 511.063 325.288 C 519.624 316.885 531.612 305.142 537.402 291.849 C 523.865 290.381 515.383 291.196 518.074 282.878 C 520.766 277.985 526.882 276.435 542.214 279.697 C 555.916 233.864 527.046 209.562 519.788 203.119 C 513.264 207.197 505.925 218.859 497.199 213.232 C 489.94 208.583 501.765 201.162 509.105 195.861 C 496.546 187.786 482.682 184.035 468.818 181.588 C 466.421 189.206 462.51 200.495 453.399 198.168 C 443.199 197.524 450.923 187.423 453.25 179.946 C 408.662 178.902 377.019 191.461 346.689 211.338 C 352.427 216.128 364.627 220.004 355.414 227.438 C 346.898 232.651 341.878 226.297 334.635 221.15 C 324.596 230.493 313.73 241.867 308.52 254.639 C 319.386 255.653 331.715 256.049 328.2 263.526 C 323.051 271.647 314.04 268.032 303.939 267.141 C 297.639 280.74 294.394 318.208 325.997 343.352 C 335.397 335.548 341.24 328.616 348.519 333.221 C 354.804 338.242 345.621 343.336 336.978 350.975 C 348.374 356.823 359.825 362.324 376.953 364.904 C 380.183 357.313 381.939 347.125 392.011 348.155 C 401.573 350.369 395.577 357.887 392.903 366.534 L 424.9 315.131 C 398.077 320.435 377.525 308.529 369.696 296.133 L 325.701 309.171 C 309.879 310.124 316.042 295.891 321.888 295.891 L 366.304 282.42 C 366.677 255.208 390.654 241.833 402.046 236.838 L 393.446 207.295 C 389.38 195.477 409.204 192.554 411.619 200.433 L 420.323 231.504 C 440.656 227.754 464.103 232.329 475.603 250.629 L 520.08 237.349 C 527.578 235.697 536.537 244.339 524.083 250.502 L 479.732 263.656 C 480.938 278.779 466.96 300.383 444.021 309.66 L 452.601 340.413 C 454.062 348.673 440.464 354.71 434.555 346.767 L 424.9 315.131 M 381.729 283.589 C 385.36 299.273 405.096 309.956 434.292 301.393 C 445.462 296.988 470.825 284.756 461.854 256.783 C 457.94 248.22 441.792 239.82 423.28 241.859 C 389.459 249.011 379.159 268.374 381.729 283.589z" fill="#fff" fill-opacity="1" transform="translate(0, 0) scale(1, 1) rotate(360, 256, 256) skewX(0) skewY(0)"></path></g></svg>
