<?xml version="1.0" encoding="utf-8"?><svg version="1.1" xmlns="http://www.w3.org/2000/svg" xmlns:xlink="http://www.w3.org/1999/xlink" x="0px" y="0px" viewBox="0 0 256 256" enable-background="new 0 0 256 256" xml:space="preserve"><g id="Base" display="none"><path display="inline" fill="#15D141" d="M68.6933594,152.4726562c-3.8691406,0-7.3134766-2.7485352-8.0537109-6.6889648L40.1289062,36.7236328c-0.8378906-4.453125,2.0927734-8.7421875,6.5458984-9.5795898c4.4550781-0.8383789,8.7421875,2.0932617,9.5791016,6.5463867l20.5107422,109.0600586c0.8378906,4.453125-2.0927734,8.7421875-6.5458984,9.5795898C69.7060547,152.4262695,69.1962891,152.4726562,68.6933594,152.4726562z M93.4033203,152.3300781c4.453125-0.8374023,7.3837891-5.1264648,6.5458984-9.5795898L79.4384766,33.6904297c-0.8369141-4.453125-5.1240234-7.3847656-9.5791016-6.5463867c-4.453125,0.8374023-7.3837891,5.1264648-6.5458984,9.5795898l20.5107422,109.0600586c0.7402344,3.9404297,4.1845703,6.6889648,8.0537109,6.6889648C92.3808594,152.4726562,92.890625,152.4262695,93.4033203,152.3300781z M116.5878906,152.3300781c4.453125-0.8374023,7.3837891-5.1264648,6.5458984-9.5795898L102.6230469,33.6904297c-0.8369141-4.453125-5.1230469-7.3847656-9.5791016-6.5463867c-4.453125,0.8374023-7.3837891,5.1264648-6.5458984,9.5795898l20.5107422,109.0600586c0.7402344,3.9404297,4.1845703,6.6889648,8.0537109,6.6889648C115.5654297,152.4726562,116.0751953,152.4262695,116.5878906,152.3300781z M139.7724609,152.3300781c4.453125-0.8374023,7.3837891-5.1264648,6.5458984-9.5795898L125.8066406,33.6904297c-0.8369141-4.453125-5.1220703-7.3847656-9.5791016-6.5463867c-4.453125,0.8374023-7.3837891,5.1264648-6.5458984,9.5795898l20.5117188,109.0600586c0.7402344,3.9404297,4.1845703,6.6889648,8.0537109,6.6889648C138.75,152.4726562,139.2597656,152.4262695,139.7724609,152.3300781z M162.9560547,152.3300781c4.453125-0.8374023,7.3837891-5.1264648,6.5458984-9.5795898L148.9912109,33.6904297c-0.8369141-4.453125-5.1220703-7.3847656-9.5791016-6.5463867c-4.453125,0.8374023-7.3837891,5.1264648-6.5458984,9.5795898l20.5107422,109.0600586c0.7402344,3.9404297,4.1845703,6.6889648,8.0537109,6.6889648C161.9335938,152.4726562,162.4433594,152.4262695,162.9560547,152.3300781z M186.140625,152.3300781c4.453125-0.8374023,7.3837891-5.1264648,6.5458984-9.5795898L172.1757812,33.6904297c-0.8369141-4.453125-5.1220703-7.3847656-9.5791016-6.5463867c-4.453125,0.8374023-7.3837891,5.1264648-6.5458984,9.5795898l20.5107422,109.0600586c0.7402344,3.9404297,4.1845703,6.6889648,8.0537109,6.6889648C185.1181641,152.4726562,185.6279297,152.4262695,186.140625,152.3300781z M209.3251953,152.3300781c4.453125-0.8374023,7.3837891-5.1264648,6.5458984-9.5795898L195.3603516,33.6904297c-0.8369141-4.453125-5.1220703-7.3847656-9.5791016-6.5463867c-4.453125,0.8374023-7.3837891,5.1264648-6.5458984,9.5795898l20.5107422,109.0600586c0.7402344,3.9404297,4.1845703,6.6889648,8.0537109,6.6889648C208.3027344,152.4726562,208.8125,152.4262695,209.3251953,152.3300781z M33.1914062,42.3551025c-6.7689819,0.0742798-12.2350464,5.5785522-12.2350464,12.3651733v4.5093384C16.3970337,60.3063354,13,64.3920288,13,69.2802734v40.9135132c0,4.8882446,3.3970337,8.973938,7.9563599,10.0506592v4.5093384c0,6.7866211,5.4660645,12.2908936,12.2350464,12.3651733V42.3551025z M235.0437012,59.2296143v-4.5093384c0-6.8328857-5.5393066-12.3720703-12.3720703-12.3720703h-0.2302246v94.7776489h0.2302246c6.8327637,0,12.3720703-5.5391846,12.3720703-12.3720703v-4.5093384C239.6030273,119.1677246,243,115.0820312,243,110.1937866V69.2802734C243,64.3920288,239.6030273,60.3063354,235.0437012,59.2296143z M202.0390625,32.4345703l13.6064453,72.3483887V35.2070312c0-4.53125-3.6728516-8.2041016-8.2041016-8.2041016c-2.458252,0-4.6577148,1.0864868-6.161377,2.7990112C201.6037598,30.642334,201.8666992,31.5178833,202.0390625,32.4345703z M184.7919922,161.6948242c-7.0341797,0-15.5039062,0.269043-24.4707031,0.5537109c-26.7857666,0.8521118-64.1967163,2.0361938-86.2766724-3.9642944c-0.8196411,0.3118286-1.6776733,0.5567017-2.5700073,0.7245483c-0.9365234,0.1762695-1.8701172,0.2612305-2.7890625,0.2612305c-7.0732422,0-13.3701172-5.0258789-14.7246094-12.2304688L39.9873047,72.7387085v71.5283813c0,7.1386719,2.7675781,13.5932617,8.0039062,18.6660156c19.2919922,18.6884766,71.1689453,17.0400391,112.8515625,15.7158203c8.8320312-0.2807617,17.1748047-0.5458984,23.9492188-0.5458984c6.8261719,0,14.2871094,2.0742188,14.7558594,7.8950195c0.609375,7.5600586-9.5595703,19.9960938-34.0751953,23.9736328c-41.6542969,6.7597656-90.5263672,0.8242188-94.0478516-18.4980469c-0.8125-4.4580078-5.0830078-7.4155273-9.5429688-6.6000977c-4.4570312,0.8125-7.4121094,5.0849609-6.5996094,9.5424805c2.078125,11.4023438,11.7119141,26.234375,45.8027344,32.140625c9.4140625,1.6313477,20.09375,2.4438477,31.1396484,2.4438477c11.9140625,0,24.2548828-0.9462891,35.875-2.831543c33.1455078-5.3779297,49.1376953-24.9423828,47.8046875-41.4892578C215.0488281,174.0766602,206.3886719,161.6948242,184.7919922,161.6948242z"/></g><g id="Layer_3" display="none"><rect x="-1227.9119873" y="-378.074707" display="inline" fill="#FF0000" width="1885.8239746" height="1013.5786133"/></g><g id="Layer_2"><path d="M68.6933594,152.4726562c-3.8691406,0-7.3134766-2.7485352-8.0537109-6.6889648L40.1289062,36.7236328c-0.8378906-4.453125,2.0927734-8.7421875,6.5458984-9.5795898c4.4550781-0.8383789,8.7421875,2.0932617,9.5791016,6.5463867l20.5107422,109.0600586c0.8378906,4.453125-2.0927734,8.7421875-6.5458984,9.5795898C69.7060547,152.4262695,69.1962891,152.4726562,68.6933594,152.4726562z M93.4033203,152.3300781c4.453125-0.8374023,7.3837891-5.1264648,6.5458984-9.5795898L79.4384766,33.6904297c-0.8369141-4.453125-5.1240234-7.3847656-9.5791016-6.5463867c-4.453125,0.8374023-7.3837891,5.1264648-6.5458984,9.5795898l20.5107422,109.0600586c0.7402344,3.9404297,4.1845703,6.6889648,8.0537109,6.6889648C92.3808594,152.4726562,92.890625,152.4262695,93.4033203,152.3300781z M116.5878906,152.3300781c4.453125-0.8374023,7.3837891-5.1264648,6.5458984-9.5795898L102.6230469,33.6904297c-0.8369141-4.453125-5.1230469-7.3847656-9.5791016-6.5463867c-4.453125,0.8374023-7.3837891,5.1264648-6.5458984,9.5795898l20.5107422,109.0600586c0.7402344,3.9404297,4.1845703,6.6889648,8.0537109,6.6889648C115.5654297,152.4726562,116.0751953,152.4262695,116.5878906,152.3300781z M139.7724609,152.3300781c4.453125-0.8374023,7.3837891-5.1264648,6.5458984-9.5795898L125.8066406,33.6904297c-0.8369141-4.453125-5.1220703-7.3847656-9.5791016-6.5463867c-4.453125,0.8374023-7.3837891,5.1264648-6.5458984,9.5795898l20.5117188,109.0600586c0.7402344,3.9404297,4.1845703,6.6889648,8.0537109,6.6889648C138.75,152.4726562,139.2597656,152.4262695,139.7724609,152.3300781z M162.9560547,152.3300781c4.453125-0.8374023,7.3837891-5.1264648,6.5458984-9.5795898L148.9912109,33.6904297c-0.8369141-4.453125-5.1220703-7.3847656-9.5791016-6.5463867c-4.453125,0.8374023-7.3837891,5.1264648-6.5458984,9.5795898l20.5107422,109.0600586c0.7402344,3.9404297,4.1845703,6.6889648,8.0537109,6.6889648C161.9335938,152.4726562,162.4433594,152.4262695,162.9560547,152.3300781z M186.140625,152.3300781c4.453125-0.8374023,7.3837891-5.1264648,6.5458984-9.5795898L172.1757812,33.6904297c-0.8369141-4.453125-5.1220703-7.3847656-9.5791016-6.5463867c-4.453125,0.8374023-7.3837891,5.1264648-6.5458984,9.5795898l20.5107422,109.0600586c0.7402344,3.9404297,4.1845703,6.6889648,8.0537109,6.6889648C185.1181641,152.4726562,185.6279297,152.4262695,186.140625,152.3300781z M209.3251953,152.3300781c4.453125-0.8374023,7.3837891-5.1264648,6.5458984-9.5795898L195.3603516,33.6904297c-0.8369141-4.453125-5.1220703-7.3847656-9.5791016-6.5463867c-4.453125,0.8374023-7.3837891,5.1264648-6.5458984,9.5795898l20.5107422,109.0600586c0.7402344,3.9404297,4.1845703,6.6889648,8.0537109,6.6889648C208.3027344,152.4726562,208.8125,152.4262695,209.3251953,152.3300781z M33.1914062,42.3551025c-6.7689819,0.0742798-12.2350464,5.5785522-12.2350464,12.3651733v4.5093384C16.3970337,60.3063354,13,64.3920288,13,69.2802734v40.9135132c0,4.8882446,3.3970337,8.973938,7.9563599,10.0506592v4.5093384c0,6.7866211,5.4660645,12.2908936,12.2350464,12.3651733V42.3551025z M235.0437012,59.2296143v-4.5093384c0-6.8328857-5.5393066-12.3720703-12.3720703-12.3720703h-0.2302246v94.7776489h0.2302246c6.8327637,0,12.3720703-5.5391846,12.3720703-12.3720703v-4.5093384C239.6030273,119.1677246,243,115.0820312,243,110.1937866V69.2802734C243,64.3920288,239.6030273,60.3063354,235.0437012,59.2296143z M202.0390625,32.4345703l13.6064453,72.3483887V35.2070312c0-4.53125-3.6728516-8.2041016-8.2041016-8.2041016c-2.458252,0-4.6577148,1.0864868-6.161377,2.7990112C201.6037598,30.642334,201.8666992,31.5178833,202.0390625,32.4345703z M184.7919922,161.6948242c-7.0341797,0-15.5039062,0.269043-24.4707031,0.5537109c-26.7857666,0.8521118-64.1967163,2.0361938-86.2766724-3.9642944c-0.8196411,0.3118286-1.6776733,0.5567017-2.5700073,0.7245483c-0.9365234,0.1762695-1.8701172,0.2612305-2.7890625,0.2612305c-7.0732422,0-13.3701172-5.0258789-14.7246094-12.2304688L39.9873047,72.7387085v71.5283813c0,7.1386719,2.7675781,13.5932617,8.0039062,18.6660156c19.2919922,18.6884766,71.1689453,17.0400391,112.8515625,15.7158203c8.8320312-0.2807617,17.1748047-0.5458984,23.9492188-0.5458984c6.8261719,0,14.2871094,2.0742188,14.7558594,7.8950195c0.609375,7.5600586-9.5595703,19.9960938-34.0751953,23.9736328c-41.6542969,6.7597656-90.5263672,0.8242188-94.0478516-18.4980469c-0.8125-4.4580078-5.0830078-7.4155273-9.5429688-6.6000977c-4.4570312,0.8125-7.4121094,5.0849609-6.5996094,9.5424805c2.078125,11.4023438,11.7119141,26.234375,45.8027344,32.140625c9.4140625,1.6313477,20.09375,2.4438477,31.1396484,2.4438477c11.9140625,0,24.2548828-0.9462891,35.875-2.831543c33.1455078-5.3779297,49.1376953-24.9423828,47.8046875-41.4892578C215.0488281,174.0766602,206.3886719,161.6948242,184.7919922,161.6948242z"/></g></svg>
