<?xml version="1.0" encoding="utf-8"?><svg version="1.1" xmlns="http://www.w3.org/2000/svg" xmlns:xlink="http://www.w3.org/1999/xlink" x="0px" y="0px" viewBox="0 0 256 256" enable-background="new 0 0 256 256" xml:space="preserve"><g id="Base" display="none"><path display="inline" fill="#0076DE" d="M38.8874168,79.1675262V54.3495827C50.2113152,68.0172882,85.8188553,77.9964142,128,77.9964142s77.788681-9.979126,89.1125793-23.6468315v24.8179436C209.5050659,92.1397629,175.6105804,104.3222198,128,104.3222198S46.4949341,92.1397629,38.8874168,79.1675262z M197.1064453,102.4769287v105.7022705v0.000061c0,12.3667603-30.9399414,22.3920288-69.1064453,22.3920288s-69.1064453-10.0252686-69.1064453-22.3920288v-0.000061V102.4769287c-8.5866699-3.3068848-15.4289551-7.2446899-20.0061035-11.6359253v122.4477539v0.000061c0,15.9468994,39.8969727,28.8744507,89.1125488,28.8744507s89.1125488-12.9275513,89.1125488-28.8744507v-0.000061V90.8410034C212.5354004,95.2322388,205.6931152,99.1700439,197.1064453,102.4769287z M121.8323822,124.644249c-7.5906219,0-13.7440414,6.1534195-13.7440414,13.7440414c0,7.5906372,6.1534195,13.7440491,13.7440414,13.7440491s13.7440491-6.1534119,13.7440491-13.7440491C135.5764313,130.7976685,129.4230042,124.644249,121.8323822,124.644249z M82.0503998,131.6890259c-5.9465866,0-10.7672501,4.8206635-10.7672501,10.7672577c0,5.946579,4.8206635,10.7672424,10.7672501,10.7672424s10.7672424-4.8206635,10.7672424-10.7672424C92.8176422,136.5096893,87.9969864,131.6890259,82.0503998,131.6890259z M173.3726196,194.0707397c-4.0927277,0-7.4105377,3.3178101-7.4105377,7.4105377c0,4.0927124,3.3178101,7.4105225,7.4105377,7.4105225s7.4105377-3.3178101,7.4105377-7.4105225C180.7831573,197.3885498,177.4653473,194.0707397,173.3726196,194.0707397z M133.4807129,187.7372284c-7.5906219,0-13.7440338,6.1534119-13.7440338,13.7440491c0,7.5906219,6.1534119,13.7440338,13.7440338,13.7440338c7.5906372,0,13.7440491-6.1534119,13.7440491-13.7440338C147.224762,193.8906403,141.0713501,187.7372284,133.4807129,187.7372284z M173.3726196,113.7947235c-7.5906219,0-13.7440338,6.1534195-13.7440338,13.7440414c0,7.5906296,6.1534119,13.7440414,13.7440338,13.7440414s13.7440491-6.1534119,13.7440491-13.7440414C187.1166687,119.948143,180.9632416,113.7947235,173.3726196,113.7947235z M217.1125488,41.0377197c0,15.9468994-39.8969727,28.8744507-89.1125488,28.8744507S38.8874512,56.9846191,38.8874512,41.0377197S78.7844238,12.163269,128,12.163269S217.1125488,25.0908203,217.1125488,41.0377197z M195.0019531,41.0375977c0-13.7133789-33.7060547-20.8886719-67.0019531-20.8886719s-67.0019531,7.175293-67.0019531,20.8886719S94.7041016,61.9262695,128,61.9262695S195.0019531,54.7509766,195.0019531,41.0375977z M128,26.1489258c-37.2382812,0-61.0019531,8.8178711-61.0019531,14.8886719S90.7617188,55.9262695,128,55.9262695s61.0019531-8.8178711,61.0019531-14.8886719S165.2382812,26.1489258,128,26.1489258z M113.0128174,190.871582c0,12.3806763-10.036499,22.4172363-22.4171143,22.4172363c-12.3808594,0-22.4172363-10.0365601-22.4172363-22.4172363s10.036377-22.4172363,22.4172363-22.4172363C102.9763184,168.4543457,113.0128174,178.4909058,113.0128174,190.871582z M94.0554199,184.7219849c0-4.680481-3.7944336-8.4747925-8.4748535-8.4747925s-8.4747314,3.7943115-8.4747314,8.4747925s3.7943115,8.4747314,8.4747314,8.4747314S94.0554199,189.4024658,94.0554199,184.7219849z M174.5512695,165.7386475c0,10.4841919-8.4990234,18.9833374-18.9833984,18.9833374c-10.4841309,0-18.9832764-8.4991455-18.9832764-18.9833374s8.4991455-18.9833374,18.9832764-18.9833374C166.0522461,146.7553101,174.5512695,155.2544556,174.5512695,165.7386475z M157.4940186,159.6501465c0-3.5493164-2.8773193-6.4266357-6.4266357-6.4266357s-6.4267578,2.8773193-6.4267578,6.4266357c0,3.5493774,2.8774414,6.4266968,6.4267578,6.4266968S157.4940186,163.1995239,157.4940186,159.6501465z"/></g><g id="Layer_3" display="none"><rect x="-1503.9119873" y="-378.074707" display="inline" fill="#FF0000" width="1885.8239746" height="1013.5786133"/></g><g id="Layer_2"><path d="M38.8874168,79.1675262V54.3495827C50.2113152,68.0172882,85.8188553,77.9964142,128,77.9964142s77.788681-9.979126,89.1125793-23.6468315v24.8179436C209.5050659,92.1397629,175.6105804,104.3222198,128,104.3222198S46.4949341,92.1397629,38.8874168,79.1675262z M197.1064453,102.4769287v105.7022705v0.000061c0,12.3667603-30.9399414,22.3920288-69.1064453,22.3920288s-69.1064453-10.0252686-69.1064453-22.3920288v-0.000061V102.4769287c-8.5866699-3.3068848-15.4289551-7.2446899-20.0061035-11.6359253v122.4477539v0.000061c0,15.9468994,39.8969727,28.8744507,89.1125488,28.8744507s89.1125488-12.9275513,89.1125488-28.8744507v-0.000061V90.8410034C212.5354004,95.2322388,205.6931152,99.1700439,197.1064453,102.4769287z M121.8323822,124.644249c-7.5906219,0-13.7440414,6.1534195-13.7440414,13.7440414c0,7.5906372,6.1534195,13.7440491,13.7440414,13.7440491s13.7440491-6.1534119,13.7440491-13.7440491C135.5764313,130.7976685,129.4230042,124.644249,121.8323822,124.644249z M82.0503998,131.6890259c-5.9465866,0-10.7672501,4.8206635-10.7672501,10.7672577c0,5.946579,4.8206635,10.7672424,10.7672501,10.7672424s10.7672424-4.8206635,10.7672424-10.7672424C92.8176422,136.5096893,87.9969864,131.6890259,82.0503998,131.6890259z M173.3726196,194.0707397c-4.0927277,0-7.4105377,3.3178101-7.4105377,7.4105377c0,4.0927124,3.3178101,7.4105225,7.4105377,7.4105225s7.4105377-3.3178101,7.4105377-7.4105225C180.7831573,197.3885498,177.4653473,194.0707397,173.3726196,194.0707397z M133.4807129,187.7372284c-7.5906219,0-13.7440338,6.1534119-13.7440338,13.7440491c0,7.5906219,6.1534119,13.7440338,13.7440338,13.7440338c7.5906372,0,13.7440491-6.1534119,13.7440491-13.7440338C147.224762,193.8906403,141.0713501,187.7372284,133.4807129,187.7372284z M173.3726196,113.7947235c-7.5906219,0-13.7440338,6.1534195-13.7440338,13.7440414c0,7.5906296,6.1534119,13.7440414,13.7440338,13.7440414s13.7440491-6.1534119,13.7440491-13.7440414C187.1166687,119.948143,180.9632416,113.7947235,173.3726196,113.7947235z M217.1125488,41.0377197c0,15.9468994-39.8969727,28.8744507-89.1125488,28.8744507S38.8874512,56.9846191,38.8874512,41.0377197S78.7844238,12.163269,128,12.163269S217.1125488,25.0908203,217.1125488,41.0377197z M195.0019531,41.0375977c0-13.7133789-33.7060547-20.8886719-67.0019531-20.8886719s-67.0019531,7.175293-67.0019531,20.8886719S94.7041016,61.9262695,128,61.9262695S195.0019531,54.7509766,195.0019531,41.0375977z M128,26.1489258c-37.2382812,0-61.0019531,8.8178711-61.0019531,14.8886719S90.7617188,55.9262695,128,55.9262695s61.0019531-8.8178711,61.0019531-14.8886719S165.2382812,26.1489258,128,26.1489258z M113.0128174,190.871582c0,12.3806763-10.036499,22.4172363-22.4171143,22.4172363c-12.3808594,0-22.4172363-10.0365601-22.4172363-22.4172363s10.036377-22.4172363,22.4172363-22.4172363C102.9763184,168.4543457,113.0128174,178.4909058,113.0128174,190.871582z M94.0554199,184.7219849c0-4.680481-3.7944336-8.4747925-8.4748535-8.4747925s-8.4747314,3.7943115-8.4747314,8.4747925s3.7943115,8.4747314,8.4747314,8.4747314S94.0554199,189.4024658,94.0554199,184.7219849z M174.5512695,165.7386475c0,10.4841919-8.4990234,18.9833374-18.9833984,18.9833374c-10.4841309,0-18.9832764-8.4991455-18.9832764-18.9833374s8.4991455-18.9833374,18.9832764-18.9833374C166.0522461,146.7553101,174.5512695,155.2544556,174.5512695,165.7386475z M157.4940186,159.6501465c0-3.5493164-2.8773193-6.4266357-6.4266357-6.4266357s-6.4267578,2.8773193-6.4267578,6.4266357c0,3.5493774,2.8774414,6.4266968,6.4267578,6.4266968S157.4940186,163.1995239,157.4940186,159.6501465z"/></g></svg>
