<?xml version="1.0" encoding="utf-8"?><svg version="1.1" xmlns="http://www.w3.org/2000/svg" xmlns:xlink="http://www.w3.org/1999/xlink" x="0px" y="0px" viewBox="0 0 256 256" enable-background="new 0 0 256 256" xml:space="preserve"><g id="Base" display="none"><path display="inline" fill="#F0D400" d="M227.9494629,118.3659058c-42.7122192-30.1133423-82.5852051-64.9678955-119.8571167-104.1658325c-2.5609741-2.6933594-7.1234741-1.2858887-7.6821899,2.3884277c-7.5877686,49.897522-35.0466919,79.4644775-71.9030762,99.416687c-2.5585938,1.3850708-3.1484375,4.7787476-1.2132568,6.9512939c31.7627563,35.6593018,41.7175293,73.4608154,24.0559082,113.9750366c-1.5998535,3.6698608,2.0806274,7.4222412,5.7973633,5.9345093c50.5114746-20.2180786,99.6359253-36.8228149,146.2576904-46.9077759c2.0310059-0.4393311,3.5047607-2.2037354,3.5406494-4.2814331c0.4300537-24.8711548,7.0980835-47.4118042,21.9699707-66.8875732C230.47229,122.7503052,230.0461426,119.8441772,227.9494629,118.3659058z M186.7000122,191.3656006l-8.3397217,2.1269531l-8.3336792,2.1439819l-8.310791,2.2293091c-11.0646362,3.0319824-22.0628052,6.302124-32.9855957,9.803772c-10.9552002,3.3988037-21.8417358,7.0234375-32.6483154,10.87677l-8.090271,2.9312134l-8.0614014,3.0113525l-8.0588989,3.022583l-8.0290527,3.1047974l-0.3786011-0.9255981c4.619873-3.8834839,9.5256348-7.1561279,14.5161743-10.2609253c2.5126953-1.5083618,5.0427246-2.9866333,7.6040039-4.394043c1.2768555-0.7141724,2.5761108-1.3710938,3.8701172-2.0447998c1.2960205-0.6681519,2.5855103-1.3571167,3.899231-1.9819336c10.4680786-5.1141968,21.2932739-9.3956299,32.3717041-12.8733521c11.0769653-3.4816284,22.4024048-6.184082,33.9164429-7.987915c11.5272827-1.7382812,23.2188721-2.7307129,35.2047729-1.7949219l0.2174683,0.9760742L186.7000122,191.3656006z M200.8081055,155.0950317c-14.1925659,1.1175537-28.0970459,0.5679321-41.914978-0.4827271c-13.8059692-1.1200562-27.4984131-2.8968506-41.09375-5.2359619c-13.5960083-2.3352661-27.0905762-5.2575073-40.472168-8.8334351c-13.3703613-3.6411133-26.6521606-7.7949829-39.6430664-13.6320801l0.1702271-0.9854126l20.4321899,3.2819214l20.4053955,3.4365234l40.8093262,6.882019l40.7525024,7.2111816l20.3754883,3.6099854l20.3490601,3.7626343L200.8081055,155.0950317z M203.3278198,143.7827148l-19.9720459-3.5200195l-19.9432983-3.6722412l-39.8848877-7.3532715l-39.8230591-7.6815186l-19.9106445-3.8452148l-19.8815918-3.9993896l0.1853638-0.982666c13.9408569-0.9727173,27.5650635-0.2669678,41.0928345,0.9501953c13.5154419,1.2820435,26.907959,3.2161255,40.1900635,5.7354736c13.2828369,2.5155029,26.4598999,5.5917969,39.5133667,9.322937c13.0404663,3.800415,25.9866943,8.1004639,38.6192627,14.0630493L203.3278198,143.7827148z M217.4866333,121.6912231c-12.3061523-3.8076172-23.6299438-9.5250244-34.416687-16.0593262c-10.7519531-6.5903931-20.8948975-14.1353149-30.3476562-22.4620972c-9.4561768-8.322937-18.2086182-17.4494629-26.0852661-27.3024902c-0.9917603-1.2244873-1.9310303-2.4979858-2.8858643-3.7538452c-0.9502563-1.2601318-1.9121704-2.5072021-2.8280029-3.795105c-1.828186-2.5787964-3.5933838-5.2059326-5.3269653-7.8483887c-1.6713867-2.6985474-3.3132935-5.4110107-4.8629761-8.1880493c-1.5272827-2.7962646-2.9501343-5.6675415-4.2599487-8.6120605l0.7652588-0.6436768l6.1251221,6.9594727l6.2506714,6.84375l6.3187866,6.777771l6.4404297,6.6610718c8.6685181,8.8016357,17.6668091,17.2749634,26.9620361,25.4054565c9.2236938,8.2116699,18.7554321,16.0803223,28.564209,23.5907593l7.4078369,5.5657959l7.5057983,5.4345703l7.5610962,5.3613281l7.6575317,5.2268677L217.4866333,121.6912231z"/></g><g id="Layer_3" display="none"><rect x="-399.9119568" y="-654.074707" display="inline" fill="#FF0000" width="1885.8239746" height="1013.5786133"/></g><g id="Layer_2"><path d="M227.9494629,118.3659058c-42.7122192-30.1133423-82.5852051-64.9678955-119.8571167-104.1658325c-2.5609741-2.6933594-7.1234741-1.2858887-7.6821899,2.3884277c-7.5877686,49.897522-35.0466919,79.4644775-71.9030762,99.416687c-2.5585938,1.3850708-3.1484375,4.7787476-1.2132568,6.9512939c31.7627563,35.6593018,41.7175293,73.4608154,24.0559082,113.9750366c-1.5998535,3.6698608,2.0806274,7.4222412,5.7973633,5.9345093c50.5114746-20.2180786,99.6359253-36.8228149,146.2576904-46.9077759c2.0310059-0.4393311,3.5047607-2.2037354,3.5406494-4.2814331c0.4300537-24.8711548,7.0980835-47.4118042,21.9699707-66.8875732C230.47229,122.7503052,230.0461426,119.8441772,227.9494629,118.3659058z M186.7000122,191.3656006l-8.3397217,2.1269531l-8.3336792,2.1439819l-8.310791,2.2293091c-11.0646362,3.0319824-22.0628052,6.302124-32.9855957,9.803772c-10.9552002,3.3988037-21.8417358,7.0234375-32.6483154,10.87677l-8.090271,2.9312134l-8.0614014,3.0113525l-8.0588989,3.022583l-8.0290527,3.1047974l-0.3786011-0.9255981c4.619873-3.8834839,9.5256348-7.1561279,14.5161743-10.2609253c2.5126953-1.5083618,5.0427246-2.9866333,7.6040039-4.394043c1.2768555-0.7141724,2.5761108-1.3710938,3.8701172-2.0447998c1.2960205-0.6681519,2.5855103-1.3571167,3.899231-1.9819336c10.4680786-5.1141968,21.2932739-9.3956299,32.3717041-12.8733521c11.0769653-3.4816284,22.4024048-6.184082,33.9164429-7.987915c11.5272827-1.7382812,23.2188721-2.7307129,35.2047729-1.7949219l0.2174683,0.9760742L186.7000122,191.3656006z M200.8081055,155.0950317c-14.1925659,1.1175537-28.0970459,0.5679321-41.914978-0.4827271c-13.8059692-1.1200562-27.4984131-2.8968506-41.09375-5.2359619c-13.5960083-2.3352661-27.0905762-5.2575073-40.472168-8.8334351c-13.3703613-3.6411133-26.6521606-7.7949829-39.6430664-13.6320801l0.1702271-0.9854126l20.4321899,3.2819214l20.4053955,3.4365234l40.8093262,6.882019l40.7525024,7.2111816l20.3754883,3.6099854l20.3490601,3.7626343L200.8081055,155.0950317z M203.3278198,143.7827148l-19.9720459-3.5200195l-19.9432983-3.6722412l-39.8848877-7.3532715l-39.8230591-7.6815186l-19.9106445-3.8452148l-19.8815918-3.9993896l0.1853638-0.982666c13.9408569-0.9727173,27.5650635-0.2669678,41.0928345,0.9501953c13.5154419,1.2820435,26.907959,3.2161255,40.1900635,5.7354736c13.2828369,2.5155029,26.4598999,5.5917969,39.5133667,9.322937c13.0404663,3.800415,25.9866943,8.1004639,38.6192627,14.0630493L203.3278198,143.7827148z M217.4866333,121.6912231c-12.3061523-3.8076172-23.6299438-9.5250244-34.416687-16.0593262c-10.7519531-6.5903931-20.8948975-14.1353149-30.3476562-22.4620972c-9.4561768-8.322937-18.2086182-17.4494629-26.0852661-27.3024902c-0.9917603-1.2244873-1.9310303-2.4979858-2.8858643-3.7538452c-0.9502563-1.2601318-1.9121704-2.5072021-2.8280029-3.795105c-1.828186-2.5787964-3.5933838-5.2059326-5.3269653-7.8483887c-1.6713867-2.6985474-3.3132935-5.4110107-4.8629761-8.1880493c-1.5272827-2.7962646-2.9501343-5.6675415-4.2599487-8.6120605l0.7652588-0.6436768l6.1251221,6.9594727l6.2506714,6.84375l6.3187866,6.777771l6.4404297,6.6610718c8.6685181,8.8016357,17.6668091,17.2749634,26.9620361,25.4054565c9.2236938,8.2116699,18.7554321,16.0803223,28.564209,23.5907593l7.4078369,5.5657959l7.5057983,5.4345703l7.5610962,5.3613281l7.6575317,5.2268677L217.4866333,121.6912231z"/></g></svg>
