<?xml version="1.0" encoding="utf-8"?><svg version="1.1" xmlns="http://www.w3.org/2000/svg" xmlns:xlink="http://www.w3.org/1999/xlink" x="0px" y="0px" viewBox="0 0 256 256" enable-background="new 0 0 256 256" xml:space="preserve"><g id="Base" display="none"><path display="inline" fill="#0076DE" d="M228.7703857,181.0718384c2.0294189,4.9611206,2.9385376,10.5949097,2.6138306,16.1158447c-0.3163452,5.5169678-1.6479492,11.0386353-4.1127319,15.8278809c-1.2283936,2.3718262-2.7116089,4.5957642-4.3933716,6.2452393c-0.8219604,0.8340454-1.7227173,1.4646606-2.5100708,1.8262329c-0.7991943,0.3721313-1.4042358,0.3706665-1.8280029,0.2428589c-0.2147827-0.0734863-0.4506226-0.0181885-0.7441406-0.0852661c-0.2909546-0.0473022-0.6334839-0.2115479-0.9981689-0.4158325c-0.7246704-0.4492798-1.5341797-1.1733398-2.2583008-2.0836182c-1.4642334-1.8208008-2.6932373-4.1812134-3.6420898-6.6677856c-1.9234009-5.012085-2.6442871-10.6356812-2.3505249-16.142334c0.2836914-5.5117798,1.7851562-11.0001221,4.310791-15.7088013c1.2368774-2.3446045,2.718689-4.519165,4.2962036-6.1854858c0.7845459-0.8336182,1.6082764-1.4970093,2.34198-1.9086304c0.7479248-0.4105225,1.3011475-0.5174561,1.7701416-0.4987183c0.4685059,0.0266724,1.0116577,0.1883545,1.7167358,0.6746826c0.6907959,0.4859619,1.4450073,1.2332764,2.1419678,2.1462402C226.5273438,176.2802124,227.7805786,178.6039429,228.7703857,181.0718384z M211.3616333,243.1326294c-25.3568115,1.0264893-50.4157104-9.8297729-72.8452148-22.1600342c-34.4767456-18.7583618-58.0252686-53.9805908-55.6676636-93.9289551c0.2526855-21.1167603,8.5180054-38.8041992,7.4586182-58.7890625C86.2333984,41.2420654,43.7014771,33.97229,20.5831909,30.9712524c-7.6139526-0.7932129-8.2089844-11.9645386-0.703064-13.5372925c40.1940308-9.0839844,90.0725708-8.0483398,112.4105835,33.2131958c9.5679321,17.0652466,10.3343506,38.6956787,11.87854,57.0352783c1.1292725,10.303894,1.9857788,19.8259888,7.8855591,26.9814453c10.4962158,11.3793945,29.3760376,13.6873169,44.255249,15.3618164c6.2747192,0.6373291,12.4238281,0.8395386,18.9490967,1.1740723C251.8754272,153.0769043,249.6560669,241.5823364,211.3616333,243.1326294z M111.6072388,58.1483154c1.9912109,5.039856,6.6379395,7.9273071,10.3787231,6.4493408c3.7407227-1.4779663,5.1589966-6.7616577,3.1677856-11.8015137s-6.6379395-7.9273071-10.3786621-6.4493408C111.0343018,47.8247681,109.6160278,53.1084595,111.6072388,58.1483154z M106.506897,70.5513916c-5.3354492-0.1020508-9.7722168,5.6425171-9.90979,12.8308716s4.0762329,13.0984497,9.4116821,13.2005005c5.3355103,0.1021118,9.7722778-5.6424561,9.90979-12.8308105C116.0561523,76.5635986,111.8424072,70.6535034,106.506897,70.5513916z M94.9381714,35.8669434c3.2978516,1.690918,6.9297485,1.1922607,8.1120605-1.1136475c1.182312-2.3059692-0.5327148-5.5460205-3.8305664-7.2368774c-3.2978516-1.690918-6.9297485-1.1922607-8.1120605,1.1136475C89.925293,30.9360352,91.6403198,34.1760864,94.9381714,35.8669434z M100.1178589,55.4473877c2.3730469-2.046814,2.0612183-6.2979126-0.6964722-9.4950562c-2.7576904-3.1970825-6.9169312-4.1295776-9.289978-2.0827026c-2.3729858,2.046875-2.0612183,6.2979126,0.6964722,9.4950562C93.5855713,56.5617676,97.744812,57.4942627,100.1178589,55.4473877z M117.8510132,141.534668c-2.1796875-8.6262817-9.137146-14.3076782-15.539917-12.6898193c-6.40271,1.6178589-9.8261719,9.9223633-7.6464233,18.548645c2.1796875,8.6262207,9.137146,14.3076782,15.539917,12.6897583C116.6072998,158.4653931,120.0307617,150.1608887,117.8510132,141.534668z M127.2509155,123.510437c5.4898071-0.6153564,9.2680664-7.1099854,8.4390259-14.5062256s-5.951416-12.8932495-11.4412231-12.2779541c-5.4897461,0.6153564-9.2680664,7.1100464-8.4390259,14.5062866S121.7611694,124.1257935,127.2509155,123.510437z M145.5557861,182.8005981c-6.8613892-6.213562-16.1623535-7.1221313-20.774353-2.0293579c-4.6119385,5.0927734-2.7883911,14.2583618,4.072998,20.4719849c6.8613281,6.213562,16.1623535,7.1221313,20.774292,2.0293579C154.2406616,198.1797485,152.4171143,189.0141602,145.5557861,182.8005981z M153.2161865,145.3598022c-6.300415-6.7817383-15.4885254-8.4883423-20.5221558-3.8119507c-5.0336304,4.6764526-4.0066528,13.9650879,2.2937622,20.7468262c6.3004761,6.7816772,15.4885254,8.4883423,20.5221558,3.8118896S159.5166626,152.1414795,153.2161865,145.3598022z M212.6380615,237.835083c-3.008728-2.3440552-5.5184326-5.2780151-7.5152588-8.5093994c-2.0271606-3.2180176-3.5733032-6.7312622-4.7194214-10.3651733c-2.2957153-7.2825317-3.0204468-15.0108643-2.6959839-22.630127c0.2791138-7.6263428,1.6176758-15.2562256,4.2715454-22.4207153c1.3343506-3.5737305,3.0165405-7.0267334,5.1536255-10.1734009c2.1078491-3.1553345,4.7047119-6.0217285,7.8701782-8.1275024l-0.3719482-0.5930176c-4.0378418,1.0106812-7.602356,3.6102905-10.623291,6.5712891c-2.9949341,3.0268555-5.3705444,6.5906982-7.2751465,10.3329468c-3.7644043,7.52771-5.6835938,15.8105469-6.0170288,24.1352539c-0.307251,8.3162231,0.9433594,16.8166504,4.3605957,24.612793c1.7219238,3.8738403,3.9763184,7.5662842,6.8674927,10.6946411c2.9220581,3.0791016,6.3497314,5.7215576,10.2733765,7.0314941L212.6380615,237.835083z M234.1213989,197.3378296c0.1508789-2.8841553,0.234314-5.7720947,0.2189331-8.6925659c-0.036377-2.9177856-0.1246948-5.878418-0.5615234-8.8774414c-0.444519-2.9933472-1.1468506-6.052063-2.7412109-9.0366821c-0.7949219-1.4863892-1.8465576-2.9658813-3.3513794-4.2702026c-0.7731934-0.6326904-1.6256104-1.251709-2.6600952-1.6921387c-1.0238037-0.4418335-2.1671753-0.7373657-3.3387451-0.8191528c-1.1732178-0.0498047-2.3430786,0.1159058-3.4108276,0.4405518c-1.0782471,0.3220215-1.9959717,0.8414307-2.836731,1.3837891c-1.6445312,1.1276855-2.859375,2.4802856-3.8201904,3.8684082c-1.9277344,2.7875366-2.9783936,5.7492676-3.7645874,8.6762085c-0.777832,2.934021-1.2047729,5.869812-1.5679932,8.7709351c-0.3433228,2.9058838-0.5795288,5.791626-0.7442017,8.6807251c-0.2932739,5.7791748-0.2940063,11.5846558,0.605896,17.5435181c0.4855347,2.9746704,1.2120361,5.9967651,2.744812,8.9864502c0.7678833,1.4890137,1.7642212,2.9918213,3.2351685,4.3327637c0.7494507,0.6603394,1.5890503,1.298645,2.6115723,1.7869873c1.0112915,0.4772339,2.1629639,0.875061,3.3616333,0.8978882c1.1947021-0.0015259,2.3659058-0.2226562,3.4177856-0.597168c1.0618896-0.371582,1.960022-0.911499,2.7719116-1.4830322c1.5908813-1.1776733,2.7286987-2.5630493,3.6521606-3.9508057c1.8234863-2.8043213,2.8726807-5.7166748,3.6673584-8.6164551C233.1526489,208.8633423,233.7869873,203.1031494,234.1213989,197.3378296z"/></g><g id="Layer_3" display="none"><rect x="-675.9119873" y="-654.074707" display="inline" fill="#FF0000" width="1885.8239746" height="1013.5786133"/></g><g id="Layer_2"><path d="M228.7703857,181.0718384c2.0294189,4.9611206,2.9385376,10.5949097,2.6138306,16.1158447c-0.3163452,5.5169678-1.6479492,11.0386353-4.1127319,15.8278809c-1.2283936,2.3718262-2.7116089,4.5957642-4.3933716,6.2452393c-0.8219604,0.8340454-1.7227173,1.4646606-2.5100708,1.8262329c-0.7991943,0.3721313-1.4042358,0.3706665-1.8280029,0.2428589c-0.2147827-0.0734863-0.4506226-0.0181885-0.7441406-0.0852661c-0.2909546-0.0473022-0.6334839-0.2115479-0.9981689-0.4158325c-0.7246704-0.4492798-1.5341797-1.1733398-2.2583008-2.0836182c-1.4642334-1.8208008-2.6932373-4.1812134-3.6420898-6.6677856c-1.9234009-5.012085-2.6442871-10.6356812-2.3505249-16.142334c0.2836914-5.5117798,1.7851562-11.0001221,4.310791-15.7088013c1.2368774-2.3446045,2.718689-4.519165,4.2962036-6.1854858c0.7845459-0.8336182,1.6082764-1.4970093,2.34198-1.9086304c0.7479248-0.4105225,1.3011475-0.5174561,1.7701416-0.4987183c0.4685059,0.0266724,1.0116577,0.1883545,1.7167358,0.6746826c0.6907959,0.4859619,1.4450073,1.2332764,2.1419678,2.1462402C226.5273438,176.2802124,227.7805786,178.6039429,228.7703857,181.0718384z M211.3616333,243.1326294c-25.3568115,1.0264893-50.4157104-9.8297729-72.8452148-22.1600342c-34.4767456-18.7583618-58.0252686-53.9805908-55.6676636-93.9289551c0.2526855-21.1167603,8.5180054-38.8041992,7.4586182-58.7890625C86.2333984,41.2420654,43.7014771,33.97229,20.5831909,30.9712524c-7.6139526-0.7932129-8.2089844-11.9645386-0.703064-13.5372925c40.1940308-9.0839844,90.0725708-8.0483398,112.4105835,33.2131958c9.5679321,17.0652466,10.3343506,38.6956787,11.87854,57.0352783c1.1292725,10.303894,1.9857788,19.8259888,7.8855591,26.9814453c10.4962158,11.3793945,29.3760376,13.6873169,44.255249,15.3618164c6.2747192,0.6373291,12.4238281,0.8395386,18.9490967,1.1740723C251.8754272,153.0769043,249.6560669,241.5823364,211.3616333,243.1326294z M111.6072388,58.1483154c1.9912109,5.039856,6.6379395,7.9273071,10.3787231,6.4493408c3.7407227-1.4779663,5.1589966-6.7616577,3.1677856-11.8015137s-6.6379395-7.9273071-10.3786621-6.4493408C111.0343018,47.8247681,109.6160278,53.1084595,111.6072388,58.1483154z M106.506897,70.5513916c-5.3354492-0.1020508-9.7722168,5.6425171-9.90979,12.8308716s4.0762329,13.0984497,9.4116821,13.2005005c5.3355103,0.1021118,9.7722778-5.6424561,9.90979-12.8308105C116.0561523,76.5635986,111.8424072,70.6535034,106.506897,70.5513916z M94.9381714,35.8669434c3.2978516,1.690918,6.9297485,1.1922607,8.1120605-1.1136475c1.182312-2.3059692-0.5327148-5.5460205-3.8305664-7.2368774c-3.2978516-1.690918-6.9297485-1.1922607-8.1120605,1.1136475C89.925293,30.9360352,91.6403198,34.1760864,94.9381714,35.8669434z M100.1178589,55.4473877c2.3730469-2.046814,2.0612183-6.2979126-0.6964722-9.4950562c-2.7576904-3.1970825-6.9169312-4.1295776-9.289978-2.0827026c-2.3729858,2.046875-2.0612183,6.2979126,0.6964722,9.4950562C93.5855713,56.5617676,97.744812,57.4942627,100.1178589,55.4473877z M117.8510132,141.534668c-2.1796875-8.6262817-9.137146-14.3076782-15.539917-12.6898193c-6.40271,1.6178589-9.8261719,9.9223633-7.6464233,18.548645c2.1796875,8.6262207,9.137146,14.3076782,15.539917,12.6897583C116.6072998,158.4653931,120.0307617,150.1608887,117.8510132,141.534668z M127.2509155,123.510437c5.4898071-0.6153564,9.2680664-7.1099854,8.4390259-14.5062256s-5.951416-12.8932495-11.4412231-12.2779541c-5.4897461,0.6153564-9.2680664,7.1100464-8.4390259,14.5062866S121.7611694,124.1257935,127.2509155,123.510437z M145.5557861,182.8005981c-6.8613892-6.213562-16.1623535-7.1221313-20.774353-2.0293579c-4.6119385,5.0927734-2.7883911,14.2583618,4.072998,20.4719849c6.8613281,6.213562,16.1623535,7.1221313,20.774292,2.0293579C154.2406616,198.1797485,152.4171143,189.0141602,145.5557861,182.8005981z M153.2161865,145.3598022c-6.300415-6.7817383-15.4885254-8.4883423-20.5221558-3.8119507c-5.0336304,4.6764526-4.0066528,13.9650879,2.2937622,20.7468262c6.3004761,6.7816772,15.4885254,8.4883423,20.5221558,3.8118896S159.5166626,152.1414795,153.2161865,145.3598022z M212.6380615,237.835083c-3.008728-2.3440552-5.5184326-5.2780151-7.5152588-8.5093994c-2.0271606-3.2180176-3.5733032-6.7312622-4.7194214-10.3651733c-2.2957153-7.2825317-3.0204468-15.0108643-2.6959839-22.630127c0.2791138-7.6263428,1.6176758-15.2562256,4.2715454-22.4207153c1.3343506-3.5737305,3.0165405-7.0267334,5.1536255-10.1734009c2.1078491-3.1553345,4.7047119-6.0217285,7.8701782-8.1275024l-0.3719482-0.5930176c-4.0378418,1.0106812-7.602356,3.6102905-10.623291,6.5712891c-2.9949341,3.0268555-5.3705444,6.5906982-7.2751465,10.3329468c-3.7644043,7.52771-5.6835938,15.8105469-6.0170288,24.1352539c-0.307251,8.3162231,0.9433594,16.8166504,4.3605957,24.612793c1.7219238,3.8738403,3.9763184,7.5662842,6.8674927,10.6946411c2.9220581,3.0791016,6.3497314,5.7215576,10.2733765,7.0314941L212.6380615,237.835083z M234.1213989,197.3378296c0.1508789-2.8841553,0.234314-5.7720947,0.2189331-8.6925659c-0.036377-2.9177856-0.1246948-5.878418-0.5615234-8.8774414c-0.444519-2.9933472-1.1468506-6.052063-2.7412109-9.0366821c-0.7949219-1.4863892-1.8465576-2.9658813-3.3513794-4.2702026c-0.7731934-0.6326904-1.6256104-1.251709-2.6600952-1.6921387c-1.0238037-0.4418335-2.1671753-0.7373657-3.3387451-0.8191528c-1.1732178-0.0498047-2.3430786,0.1159058-3.4108276,0.4405518c-1.0782471,0.3220215-1.9959717,0.8414307-2.836731,1.3837891c-1.6445312,1.1276855-2.859375,2.4802856-3.8201904,3.8684082c-1.9277344,2.7875366-2.9783936,5.7492676-3.7645874,8.6762085c-0.777832,2.934021-1.2047729,5.869812-1.5679932,8.7709351c-0.3433228,2.9058838-0.5795288,5.791626-0.7442017,8.6807251c-0.2932739,5.7791748-0.2940063,11.5846558,0.605896,17.5435181c0.4855347,2.9746704,1.2120361,5.9967651,2.744812,8.9864502c0.7678833,1.4890137,1.7642212,2.9918213,3.2351685,4.3327637c0.7494507,0.6603394,1.5890503,1.298645,2.6115723,1.7869873c1.0112915,0.4772339,2.1629639,0.875061,3.3616333,0.8978882c1.1947021-0.0015259,2.3659058-0.2226562,3.4177856-0.597168c1.0618896-0.371582,1.960022-0.911499,2.7719116-1.4830322c1.5908813-1.1776733,2.7286987-2.5630493,3.6521606-3.9508057c1.8234863-2.8043213,2.8726807-5.7166748,3.6673584-8.6164551C233.1526489,208.8633423,233.7869873,203.1031494,234.1213989,197.3378296z"/></g></svg>
