<?xml version="1.0" encoding="utf-8"?><svg version="1.1" xmlns="http://www.w3.org/2000/svg" xmlns:xlink="http://www.w3.org/1999/xlink" x="0px" y="0px" viewBox="0 0 256 256" enable-background="new 0 0 256 256" xml:space="preserve"><g id="Base" display="none"><path display="inline" fill="#15D141" d="M243.2942505,127.8210449c-5.614563-8.5869751-18.4769897-1.8565063-24.7025146,4.1681519c-6.2254639,6.0246582-5.8223877,20.7337646-14.0560913,31.3773193s-22.2911987,14.6599731-33.7380981,3.0123291c-11.4468384-11.6477051-8.6353149-19.4797363-20.885437-40.7668457c-10.9564819-19.7112427-5.0205688-34.5413818-7.6312256-41.9717407c-2.6107178-7.4304199,0.8032837-28.7175293-1.2049561-37.3528442c-2.0081787-8.635376-3.8156128-35.7463379-14.4591675-33.3364258c-10.6435547,2.4098511-4.6188965,27.5125732-3.2131348,33.7380371s1.4057617,31.5290527,0,37.7545166s4.4180908,36.3487549-4.2369995,38.5578003c-8.6550903,2.2089844-11.0254517-4.4180908-16.0460205-10.442749c-5.0205078-6.0246582-13.4550171-23.2953491-14.4591675-30.3240967c-1.0040894-7.0287476-8.6353149-26.7092896-13.43573-41.168457c-4.8004761-14.4591675-15.482605-8.8361816-16.8883667-2.2090454c-1.4057007,6.6270752,7.8519287,29.5529175,10.2617798,39.1923828c2.4098511,9.6394043,1.7307129,17.5540771,8.3067017,26.9859619c6.0344238,9.3617554,12.7597656,21.3799438,13.3621826,27.4046021c0.602478,6.0246582-3.6147461,11.4468384-11.8484497,10.6435547s-22.2912598-18.6764526-26.3076782-21.2871094s-9.840271-15.6641235-14.2583618-25.9060059c-4.4180298-10.2419434-13.4550171-9.6394653-16.2665405-3.0123291s9.0344849,33.2034302,16.4674072,41.3692627c6.2103882,6.8228149,20.282959,17.2706909,27.5125732,24.2994385c7.2295532,7.0288086,12.4509277,14.8608398,23.2953491,34.3405762c10.8443604,19.4796753,21.6887207,26.5084229,25.3035278,28.918335c3.6148071,2.4098511,4.4180908,2.9280396,4.4180908,8.2336426c0,3.5827637,4.2172241,11.8485107,24.7010498,13.0534668c20.4838257,1.204895,24.2994385-8.0328979,25.9060059-13.2542725s-3.6147461-8.2337036,2.2090454-16.8690186c5.8238525-8.6353149,38.770874-20.9909058,43.1889648-29.0237427c4.4180908-8.0328979,13.9854736-18.3746338,14.5879517-25.4033813c0.602478-7.0288086,1.7911987-8.454834,3.7994385-16.2868652C234.9846191,134.4234009,246.7081909,133.0424194,243.2942505,127.8210449z M100.3236084,172.9464111c-0.1878662,0.0725098-0.3989258-0.0210571-0.4713745-0.2089233c-0.0430298-0.1115723-0.0275269-0.2313843,0.0315552-0.3253784l0.1293335-0.2030029c1.4022217-2.2006836,2.9986572-3.9400024,4.6374512-5.5787354c1.6480103-1.6168213,3.3788452-3.0369873,5.15625-4.3465576c3.5695801-2.5841064,7.3450928-4.6790161,11.305542-6.3347778c3.9592285-1.6586914,8.0956421-2.8966064,12.4389038-3.6431274c2.1796875-0.354187,4.4048462-0.6003418,6.711853-0.6521606c2.3158569-0.0307617,4.6743164,0.0396118,7.2246094,0.5655518l0.2324219,0.0479736c0.1973877,0.0407104,0.3244019,0.2337036,0.2836914,0.4311523c-0.024231,0.1176758-0.1044922,0.2111816-0.2056885,0.2581787l-5.8588257,2.6779785l-5.9069214,2.5638428l-11.8166504,5.1209717l-11.9202881,4.8746948l-5.9616089,2.434021L100.3236084,172.9464111z M165.1143799,173.0540161l-0.1860352,0.0662231c-3.1217651,1.112915-5.4299316,2.5641479-7.2463379,4.4046021c-0.9328003,0.8419189-1.6726074,1.8601074-2.3625488,2.7785645c-0.6255493,1.0009766-1.2133179,1.9403687-1.5947876,2.9376221c-0.8458252,1.9711914-1.0596313,3.7735596-0.9649048,5.4370728c0.0335083,0.593811,0.0473633,1.5274658-0.0827026,2.7896118c-0.072937,0.6445312-0.1901855,1.3849487-0.4321899,2.2369385c-0.236084,0.8411255-0.6383057,1.8444824-1.2635498,2.8309937c-1.2658081,2.0214233-3.3810425,3.619873-5.8267212,4.3187256c-2.4291992,0.663147-4.4358521,0.3671265-5.9078369,0.0232544c-1.4906616-0.3883667-2.5952148-0.9066772-3.5658569-1.3985596c-0.9616699-0.4996338-1.7816162-0.9939575-2.4979858-1.4597168l-1.4877319-0.9910278l-1.5048218-0.8602295c-2.0448608-1.1307373-4.2874756-2.0470581-6.6968384-2.8239746c-2.4140015-0.7806396-4.9996948-1.3028564-7.7717285-1.6315918l-1.0552368-0.1303101c-0.352356-0.029541-0.7017822-0.0325928-1.0652466-0.0708008c-0.7319336-0.0866089-1.446167-0.0665283-2.208313-0.1204834c-1.5092163-0.0580444-3.0414429,0.0264282-4.7301025,0.0567627l-0.1922607,0.003479c-0.2081909,0.0037231-0.3799438-0.1619873-0.383667-0.3701172c-0.0025635-0.1420288,0.0742798-0.2672729,0.1891479-0.3336182c2.6717529-1.53479,5.5944214-2.6366577,8.6182861-3.2929688c3.031311-0.6178589,6.1580811-0.7969971,9.2437744-0.4907227c3.0853271,0.2965698,6.1340942,1.0361938,9.0116577,2.2224731c0.7247314,0.2831421,1.4138184,0.6504517,2.1225586,0.9729004l2.0316772,1.1398926c1.2753906,0.7662354,2.5778198,1.4910278,3.8922729,1.8228149c0.6483765,0.1687012,1.2944946,0.2258301,1.847168,0.078186c0.5395508-0.1546631,1.0383301-0.5014038,1.3609009-0.9883423c0.6719971-0.9957275,0.6977539-2.5160522,0.8057251-4.0379639c0.2601929-3.1707764,1.4593506-6.2540283,3.3812256-8.7440796c0.9260254-1.2785034,2.0748291-2.3669434,3.2704468-3.3794556c1.2525024-0.9395142,2.5535278-1.8389893,4.0061035-2.4452515c2.8538818-1.3074951,6.0909424-1.7268066,9.1740723-1.2765503c0.2053833,0.0300293,0.3475342,0.2207642,0.3175049,0.4260864C165.3387451,172.8967285,165.2408447,173.008606,165.1143799,173.0540161z"/></g><g id="Layer_3" display="none"><rect x="-675.9119873" y="-378.074707" display="inline" fill="#FF0000" width="1885.8239746" height="1013.5786133"/></g><g id="Layer_2"><path d="M243.2942505,127.8210449c-5.614563-8.5869751-18.4769897-1.8565063-24.7025146,4.1681519c-6.2254639,6.0246582-5.8223877,20.7337646-14.0560913,31.3773193s-22.2911987,14.6599731-33.7380981,3.0123291c-11.4468384-11.6477051-8.6353149-19.4797363-20.885437-40.7668457c-10.9564819-19.7112427-5.0205688-34.5413818-7.6312256-41.9717407c-2.6107178-7.4304199,0.8032837-28.7175293-1.2049561-37.3528442c-2.0081787-8.635376-3.8156128-35.7463379-14.4591675-33.3364258c-10.6435547,2.4098511-4.6188965,27.5125732-3.2131348,33.7380371s1.4057617,31.5290527,0,37.7545166s4.4180908,36.3487549-4.2369995,38.5578003c-8.6550903,2.2089844-11.0254517-4.4180908-16.0460205-10.442749c-5.0205078-6.0246582-13.4550171-23.2953491-14.4591675-30.3240967c-1.0040894-7.0287476-8.6353149-26.7092896-13.43573-41.168457c-4.8004761-14.4591675-15.482605-8.8361816-16.8883667-2.2090454c-1.4057007,6.6270752,7.8519287,29.5529175,10.2617798,39.1923828c2.4098511,9.6394043,1.7307129,17.5540771,8.3067017,26.9859619c6.0344238,9.3617554,12.7597656,21.3799438,13.3621826,27.4046021c0.602478,6.0246582-3.6147461,11.4468384-11.8484497,10.6435547s-22.2912598-18.6764526-26.3076782-21.2871094s-9.840271-15.6641235-14.2583618-25.9060059c-4.4180298-10.2419434-13.4550171-9.6394653-16.2665405-3.0123291s9.0344849,33.2034302,16.4674072,41.3692627c6.2103882,6.8228149,20.282959,17.2706909,27.5125732,24.2994385c7.2295532,7.0288086,12.4509277,14.8608398,23.2953491,34.3405762c10.8443604,19.4796753,21.6887207,26.5084229,25.3035278,28.918335c3.6148071,2.4098511,4.4180908,2.9280396,4.4180908,8.2336426c0,3.5827637,4.2172241,11.8485107,24.7010498,13.0534668c20.4838257,1.204895,24.2994385-8.0328979,25.9060059-13.2542725s-3.6147461-8.2337036,2.2090454-16.8690186c5.8238525-8.6353149,38.770874-20.9909058,43.1889648-29.0237427c4.4180908-8.0328979,13.9854736-18.3746338,14.5879517-25.4033813c0.602478-7.0288086,1.7911987-8.454834,3.7994385-16.2868652C234.9846191,134.4234009,246.7081909,133.0424194,243.2942505,127.8210449z M100.3236084,172.9464111c-0.1878662,0.0725098-0.3989258-0.0210571-0.4713745-0.2089233c-0.0430298-0.1115723-0.0275269-0.2313843,0.0315552-0.3253784l0.1293335-0.2030029c1.4022217-2.2006836,2.9986572-3.9400024,4.6374512-5.5787354c1.6480103-1.6168213,3.3788452-3.0369873,5.15625-4.3465576c3.5695801-2.5841064,7.3450928-4.6790161,11.305542-6.3347778c3.9592285-1.6586914,8.0956421-2.8966064,12.4389038-3.6431274c2.1796875-0.354187,4.4048462-0.6003418,6.711853-0.6521606c2.3158569-0.0307617,4.6743164,0.0396118,7.2246094,0.5655518l0.2324219,0.0479736c0.1973877,0.0407104,0.3244019,0.2337036,0.2836914,0.4311523c-0.024231,0.1176758-0.1044922,0.2111816-0.2056885,0.2581787l-5.8588257,2.6779785l-5.9069214,2.5638428l-11.8166504,5.1209717l-11.9202881,4.8746948l-5.9616089,2.434021L100.3236084,172.9464111z M165.1143799,173.0540161l-0.1860352,0.0662231c-3.1217651,1.112915-5.4299316,2.5641479-7.2463379,4.4046021c-0.9328003,0.8419189-1.6726074,1.8601074-2.3625488,2.7785645c-0.6255493,1.0009766-1.2133179,1.9403687-1.5947876,2.9376221c-0.8458252,1.9711914-1.0596313,3.7735596-0.9649048,5.4370728c0.0335083,0.593811,0.0473633,1.5274658-0.0827026,2.7896118c-0.072937,0.6445312-0.1901855,1.3849487-0.4321899,2.2369385c-0.236084,0.8411255-0.6383057,1.8444824-1.2635498,2.8309937c-1.2658081,2.0214233-3.3810425,3.619873-5.8267212,4.3187256c-2.4291992,0.663147-4.4358521,0.3671265-5.9078369,0.0232544c-1.4906616-0.3883667-2.5952148-0.9066772-3.5658569-1.3985596c-0.9616699-0.4996338-1.7816162-0.9939575-2.4979858-1.4597168l-1.4877319-0.9910278l-1.5048218-0.8602295c-2.0448608-1.1307373-4.2874756-2.0470581-6.6968384-2.8239746c-2.4140015-0.7806396-4.9996948-1.3028564-7.7717285-1.6315918l-1.0552368-0.1303101c-0.352356-0.029541-0.7017822-0.0325928-1.0652466-0.0708008c-0.7319336-0.0866089-1.446167-0.0665283-2.208313-0.1204834c-1.5092163-0.0580444-3.0414429,0.0264282-4.7301025,0.0567627l-0.1922607,0.003479c-0.2081909,0.0037231-0.3799438-0.1619873-0.383667-0.3701172c-0.0025635-0.1420288,0.0742798-0.2672729,0.1891479-0.3336182c2.6717529-1.53479,5.5944214-2.6366577,8.6182861-3.2929688c3.031311-0.6178589,6.1580811-0.7969971,9.2437744-0.4907227c3.0853271,0.2965698,6.1340942,1.0361938,9.0116577,2.2224731c0.7247314,0.2831421,1.4138184,0.6504517,2.1225586,0.9729004l2.0316772,1.1398926c1.2753906,0.7662354,2.5778198,1.4910278,3.8922729,1.8228149c0.6483765,0.1687012,1.2944946,0.2258301,1.847168,0.078186c0.5395508-0.1546631,1.0383301-0.5014038,1.3609009-0.9883423c0.6719971-0.9957275,0.6977539-2.5160522,0.8057251-4.0379639c0.2601929-3.1707764,1.4593506-6.2540283,3.3812256-8.7440796c0.9260254-1.2785034,2.0748291-2.3669434,3.2704468-3.3794556c1.2525024-0.9395142,2.5535278-1.8389893,4.0061035-2.4452515c2.8538818-1.3074951,6.0909424-1.7268066,9.1740723-1.2765503c0.2053833,0.0300293,0.3475342,0.2207642,0.3175049,0.4260864C165.3387451,172.8967285,165.2408447,173.008606,165.1143799,173.0540161z"/></g></svg>
