<?xml version="1.0" encoding="utf-8"?><svg version="1.1" xmlns="http://www.w3.org/2000/svg" xmlns:xlink="http://www.w3.org/1999/xlink" x="0px" y="0px" viewBox="0 0 256 256" enable-background="new 0 0 256 256" xml:space="preserve"><g id="Base" display="none"><g display="inline"><path fill="#FF9000" d="M187.8349609,246c-3.0332031,0-6.1044922-0.2802734-9.1289062-0.8320312c-8.7451172-1.5693359-17.6816406-5.5097656-25.8339844-11.3935547c-3.8125-2.7988281-7.4150391-5.9941406-10.7275391-9.5126953c-3.2666016-3.5166016-6.2451172-7.34375-8.8662109-11.390625l-0.1201172-0.1933594l-6.3974609-10.6572266c-1.4384766,0.0615234-3.0419922,0.4560547-4.7314453,0.8720703c-2.1035156,0.5175781-4.2783203,1.0527344-6.5341797,1.0527344c-1.3056641,0-2.4912109-0.1777344-3.6220703-0.5419922c-0.1318359-0.0429688-0.2519531-0.0898438-0.3701172-0.1386719l-4.7832031-1.6279297l1.4423828-1.2958984c-2.7128906,2.3144531-5.5449219,4.4326172-8.4580078,6.3232422c-4.296875,2.7578125-8.8144531,5.0830078-13.4414062,6.9199219c-8.4453125,3.3115234-17.0117188,4.9882812-25.4707031,4.9882812c-0.0009766,0,0,0-0.0009766,0c-1.1650391,0-2.3369141-0.0332031-3.4853516-0.0986328c-9.7041016-0.515625-18.9677734-3.3828125-26.7773438-8.2910156c-3.1513672-1.9814453-4.1035156-6.1572266-2.1230469-9.3085938c1.2441406-1.9775391,3.3808594-3.1591797,5.7177734-3.1591797c0.1601562,0,0.3212891,0.0058594,0.4814453,0.0175781l0.1347656,0.0107422c1.2773438,0.09375,2.5859375,0.1416016,3.8720703,0.1416016c5.5576172,0,10.9550781-0.8808594,16.0410156-2.6191406c5.9707031-2.046875,11.2900391-5.1347656,15.8085938-9.1767578c1.9921875-1.7558594,3.8222656-3.6796875,5.4638672-5.7402344l-2.4589844-2.8105469l-0.1318359-0.1455078c-0.1591797-0.1708984-0.3154297-0.3447266-0.4609375-0.5283203c-2.3085938-2.9121094-2.6679688-6.6054688-2.984375-9.8652344c-0.2177734-2.2382812-0.4238281-4.3535156-1.1884766-5.8505859c-0.7832031-1.5322266-2.4667969-2.9472656-4.2490234-4.4443359c-2.5195312-2.1181641-5.375-4.5185547-6.3740234-8.0488281c-0.2958984-1.0458984-0.5-2.0966797-0.640625-3.1474609l0.4814453,4.3251953l-4.6142578-1.7900391c-4.4677734-1.7333984-8.8632812-3.8828125-13.0644531-6.3886719c-4.1630859-2.4765625-8.125-5.4013672-11.7753906-8.6904297c-3.7685547-3.3886719-7.0371094-7.1113281-9.7109375-11.0615234c-2.8066406-4.1503906-4.9326172-8.6279297-6.3183594-13.3076172c-1.3759766-4.7324219-1.921875-9.6611328-1.5820312-14.265625c0.2207031-2.9765625,2.7294922-5.3076172,5.7109375-5.3076172c0.1396484,0,0.28125,0.0058594,0.4228516,0.015625c1.9833984,0.1474609,3.7763672,1.3378906,4.6806641,3.1064453l0.0654297,0.1308594c1.5419922,3.0322266,3.4638672,5.8056641,5.703125,8.2236328c2.125,2.3164062,4.5351562,4.3447266,7.1748047,6.0390625c2.5107422,1.6230469,5.2900391,3.0195312,8.2675781,4.1552734c2.6630859,1.0107422,5.5869141,1.8007812,8.9326172,2.4121094c0.2832031,0.0517578,0.5722656,0.09375,0.8603516,0.1367188l3.3095703,0.5107422l-0.3242188,2.4257812c0.6064453-3.2958984,2.7470703-5.9648438,4.6503906-8.3359375c1.4345703-1.7880859,2.7900391-3.4775391,3.3300781-5.1474609c0.4609375-1.4287109-0.1015625-3.90625-0.6464844-6.3017578c-0.8242188-3.6289062-1.7587891-7.7421875,0.1523438-11.1552734c1.7294922-3.0908203,4.8144531-4.9453125,7.7978516-6.7373047c2.0566406-1.2363281,4-2.4033203,5.1904297-3.8007812c2.0185547-2.3701172,4.4404297-4.0771484,6.7558594-5.5693359l3.9667969-2.5546875c-0.2109375-1.2744141-0.4443359-2.4755859-0.7070312-3.6367188c-0.6884766-3.0576172-1.5878906-6.0380859-2.6708984-8.8613281c-1.2070312-3.1640625-2.4921875-5.9179688-3.9316406-8.4267578c-1.6962891-2.9453125-3.4208984-5.4355469-5.2675781-7.6083984c-2.0615234-2.4169922-4.3085938-4.5683594-6.6757812-6.3886719c-2.4892578-1.9228516-5.2080078-3.5146484-8.0888672-4.734375c-3.0400391-1.3056641-6.296875-2.1865234-9.6914062-2.6240234L49.7148438,24.28125c-2.0224609-0.2675781-3.7021484-1.5273438-4.5146484-3.3710938c-0.6171875-1.3984375-0.6533203-2.9550781-0.0996094-4.3818359c0.5527344-1.4267578,1.6279297-2.5527344,3.0283203-3.1708984c4.2832031-1.8896484,8.9794922-2.9970703,13.9570312-3.2900391C62.9228516,10.0224609,63.7617188,10,64.59375,10c4.0664062,0,8.1582031,0.5244141,12.1611328,1.5595703c4.6162109,1.1943359,9.2197266,3.0253906,13.6806641,5.4433594c4.3212891,2.3369141,8.4042969,5.0898438,12.1328125,8.1816406c3.7744141,3.1230469,7.2802734,6.5517578,10.4189453,10.1914062c3.1064453,3.6123047,6.0175781,7.5498047,8.65625,11.7070312c0.5966797,0.9355469,1.1806641,1.8876953,1.7480469,2.8515625l-1.7607422-3.1230469l5.3837891,0.2226562c0.5498047,0.0224609,1.1005859,0.0429688,1.6455078,0.0429688c0.6494141,0,1.2304688-0.0214844,1.7773438-0.0654297c1.625-0.1298828,3.2597656-0.3798828,4.9912109-0.6445312c2.5878906-0.3955078,5.2636719-0.8046875,8.0058594-0.8046875c0.9833984,0,1.8974609,0.0507812,2.7919922,0.1552734c4.1777344,0.4833984,8.1943359,1.5625,12.4580078,2.8867188l-3.8994141-1.2246094l3.3505859-3.4902344c1.6425781-1.7109375,3.1845703-3.1982422,4.7128906-4.5478516c3.84375-3.359375,7.9697266-6.3251953,12.2753906-8.8232422c8.8769531-5.1005859,18.5283203-8.2451172,27.9208984-9.0996094c1.8291016-0.1748047,3.6982422-0.2626953,5.5449219-0.2626953c7.7587891,0,15.421875,1.5625,22.1621094,4.5195312c3.4082031,1.4951172,4.9648438,5.4853516,3.4697266,8.8945312c-1.0039062,2.2890625-3.1757812,3.8291016-5.6679688,4.0205078l-0.1542969,0.0097656c-6.890625,0.515625-13.4003906,2.3271484-19.3125,5.3818359c-5.6035156,2.9042969-10.4111328,6.7421875-14.2851562,11.4052734c-0.9121094,1.0820312-1.7861328,2.2255859-2.6113281,3.4169922l-1.8408203,2.6582031l-1.8457031-1.4941406c0.9716797,0.796875,1.9169922,1.5917969,2.8251953,2.3652344c2.8320312,2.4101562,4.0400391,6.0712891,5.1054688,9.3017578c0.7314453,2.2138672,1.4208984,4.3046875,2.4658203,5.6220703c1.0605469,1.3378906,3.3037109,2.4716797,5.4736328,3.5693359c3.3037109,1.6699219,6.7197266,3.3974609,8.3974609,6.6806641c1.8125,3.5429688,0.3798828,7.7626953-0.8847656,11.4853516c-0.7900391,2.328125-1.6855469,4.9667969-1.3408203,6.3720703l1.6845703,6.8583984l-4.7636719-2.7685547c4.2294922,2.5605469,8.1982422,5.4658203,11.8017578,8.6523438c3.8974609,3.4287109,7.4414062,7.1777344,10.5273438,11.1396484c3.1181641,4.0429688,5.8242188,8.3447266,8.0527344,12.7958984c4.5439453,9.1728516,7.0898438,18.9980469,7.3671875,28.4267578c0.3222656,9.7148438-1.7353516,19.1904297-5.953125,27.3925781c-1.1621094,2.2607422-3.4638672,3.6650391-6.0068359,3.6650391c-0.0009766,0,0,0-0.0009766,0c-1.0654297,0-2.1318359-0.2587891-3.0830078-0.7480469c-2.2226562-1.1435547-3.6259766-3.4052734-3.6650391-5.9042969l-0.0009766-0.1298828c-0.0888672-6.9326172-1.4970703-13.5419922-4.1845703-19.6318359c-2.2607422-5.1132812-5.2929688-9.6484375-9.0273438-13.5039062l-1.0048828,1.9648438c-0.6591797,1.2890625-1.3378906,2.5566406-2.0166016,3.7675781c-1.7001953,3.0371094-4.4824219,5.2255859-7.1728516,7.3427734c-1.7636719,1.3876953-3.4296875,2.6982422-4.6533203,4.1337891c-1.2226562,1.4355469-2.2265625,3.3544922-3.2890625,5.3857422c-1.5947266,3.046875-3.2421875,6.1962891-5.9746094,8.359375c-1.5410156,1.2226562-3.5458984,1.8173828-6.1279297,1.8173828c-1.7480469,0-3.5644531-0.2617188-5.3203125-0.515625c-1.6035156-0.2304688-3.1181641-0.4492188-4.4101562-0.4492188c-0.9179688,0-1.6044922,0.1132812-2.0400391,0.3349609c-1.5449219,0.7890625-2.9453125,2.4150391-4.4287109,4.1357422c-0.2636719,0.3066406-0.5322266,0.6181641-0.8066406,0.9306641l2.9423828-3.2568359l1.6367188,4.8505859c0.4013672,1.1894531,0.7919922,2.2353516,1.1962891,3.1962891c1.0527344,2.5830078,2.3212891,5.0322266,3.7851562,7.3085938c2.9921875,4.7802734,6.8857422,8.8798828,11.5898438,12.2148438c4.9775391,3.5332031,10.7353516,5.9521484,17.1162109,7.1904297l0.1376953,0.0273438c1.6503906,0.3193359,3.0849609,1.2685547,4.03125,2.6699219s1.2900391,3.0869141,0.96875,4.7460938c-0.3886719,2.0058594-1.7382812,3.7119141-3.6113281,4.5654297C200.46875,244.734375,194.2480469,246,187.8359375,246C187.8359375,246,187.8359375,246,187.8349609,246z M142.9228516,210.4501953C142.9267578,210.4501953,142.9267578,210.4501953,142.9228516,210.4501953z M143.3964844,210.4355469c-0.1542969,0.0097656-0.3085938,0.0146484-0.4628906,0.0146484C143.0888672,210.4501953,143.2421875,210.4453125,143.3964844,210.4355469z M136.7919922,208.1982422c-1.1582031-0.796875-2.2714844-1.7246094-3.3701172-2.640625c-1.8730469-1.5595703-3.9960938-3.328125-5.4824219-3.5c-0.2646484-0.03125-0.5322266-0.0449219-0.8007812-0.0449219c-0.0136719,0-0.0283203,0-0.0419922,0L136.7919922,208.1982422z M156.0693359,205.2080078c-0.9140625,0.4521484-1.8554688,0.9746094-2.8232422,1.5117188c-0.5849609,0.3242188-1.1738281,0.6513672-1.7695312,0.9697266c0.5947266-0.3173828,1.1835938-0.6445312,1.7685547-0.96875C154.2148438,206.1816406,155.15625,205.6591797,156.0693359,205.2080078z M156.0800781,205.203125C156.0771484,205.2041016,156.0771484,205.2041016,156.0800781,205.203125z M156.0908203,205.1982422C156.0878906,205.1992188,156.0878906,205.1992188,156.0908203,205.1982422z M156.1005859,205.1923828C156.0986328,205.1933594,156.0986328,205.1933594,156.1005859,205.1923828z M156.1113281,205.1875C156.1103516,205.1884766,156.1103516,205.1884766,156.1113281,205.1875z M156.1210938,205.1826172L156.1210938,205.1826172z M156.5029297,204.9990234L156.5029297,204.9990234z M156.5146484,204.9931641C156.5136719,204.9931641,156.5136719,204.9931641,156.5146484,204.9931641z M156.5263672,204.9873047C156.5244141,204.9882812,156.5244141,204.9882812,156.5263672,204.9873047z M156.5380859,204.9824219C156.5361328,204.9833984,156.5361328,204.9833984,156.5380859,204.9824219z M156.5498047,204.9765625C156.546875,204.9775391,156.546875,204.9775391,156.5498047,204.9765625z M159.7675781,203.7792969c-0.296875,0.1162109-0.6025391,0.21875-0.9169922,0.3076172c-0.7460938,0.2109375-1.5126953,0.5195312-2.2998047,0.8896484c0.7880859-0.3701172,1.5556641-0.6787109,2.3027344-0.8896484C159.1669922,203.9980469,159.4716797,203.8955078,159.7675781,203.7792969z M128.9648438,173.5751953c-4.3964844,8.8613281-10.3349609,16.9775391-17.2558594,23.5605469c-0.0390625,0.0371094-0.0771484,0.0742188-0.1162109,0.1113281c0.0371094-0.0351562,0.0742188-0.0703125,0.1103516-0.1054688C118.6318359,190.5507812,124.5693359,182.4375,128.9648438,173.5751953z M82.0664062,170.3828125c-0.3193359,0.7070312-0.65625,1.4072266-1.0097656,2.0996094c-0.8066406,1.5712891-1.765625,3.1738281-2.8544922,4.7705078l-0.5878906,0.8613281c1.3007812-1.8203125,2.4521484-3.7021484,3.4394531-5.6240234C81.4082031,171.7958984,81.7460938,171.0927734,82.0664062,170.3828125z M82.078125,170.3574219C82.0771484,170.359375,82.0771484,170.359375,82.078125,170.3574219z M109.2275391,136.7988281c1.1367188,0,2.2861328,0.0839844,3.4189453,0.2490234c12.8222656,1.8720703,21.7314453,13.8271484,19.859375,26.6484375c-0.3251953,2.2294922-0.9628906,4.3916016-1.8964844,6.4248047v-0.0009766c0.9287109-2.0175781,1.5703125-4.1865234,1.8964844-6.4238281c0.9072266-6.2109375-0.6601562-12.4033203-4.4111328-17.4365234s-9.2373047-8.3046875-15.4492188-9.2119141C111.5126953,136.8828125,110.3613281,136.7988281,109.2275391,136.7988281c-11.5693359,0-21.5556641,8.6455078-23.2294922,20.1103516c-0.3066406,2.1015625-0.7412109,4.1699219-1.2998047,6.1953125c0.5585938-2.0253906,0.9931641-4.09375,1.2998047-6.1953125C87.671875,145.4443359,97.6582031,136.7988281,109.2275391,136.7988281z M84.6943359,163.1162109C84.6943359,163.1171875,84.6943359,163.1171875,84.6943359,163.1162109z M196.0117188,150.2490234c0.4482422,0.1669922,0.8945312,0.3408203,1.3378906,0.5205078c2.5800781,1.0546875,5.1269531,2.3935547,7.5791016,3.9804688c2.3613281,1.5039062,4.6396484,3.2832031,6.75,5.2773438l0.5927734,0.5595703c-0.1503906-0.1445312-0.3017578-0.2890625-0.4541016-0.4326172c-2.1318359-2.0341797-4.4501953-3.8515625-6.9082031-5.4169922c-2.4443359-1.5830078-4.9794922-2.9121094-7.5517578-3.9648438C196.9111328,150.5917969,196.4628906,150.4169922,196.0117188,150.2490234z M159.5947266,127.5869141c0.7119141,4.3359375,2.6357422,8.3916016,5.6269531,11.7568359c0.4101562,0.4609375,0.8349609,0.9033203,1.2744141,1.3271484c-0.4394531-0.4238281-0.8642578-0.8662109-1.2744141-1.3271484C162.2304688,135.9794922,160.3066406,131.9238281,159.5947266,127.5869141z M57.1269531,133.6865234c0.0371094,0.7773438,0.0488281,1.5693359,0.0488281,2.3789062C57.1757812,135.2558594,57.1640625,134.4638672,57.1269531,133.6865234z M56.5136719,128.6074219c0.1542969,0.9238281,0.2958984,1.8203125,0.4052734,2.7021484C56.8095703,130.4257812,56.6669922,129.5283203,56.5136719,128.6074219z M55.5380859,117.0019531C55.5253906,117.1142578,55.5253906,117.1142578,55.5380859,117.0019531z M55.5390625,116.9902344C55.5390625,116.9912109,55.5390625,116.9902344,55.5390625,116.9902344z M182.765625,100.2275391c-8.6796875,0-16.3242188,4.7490234-20.3867188,11.8466797C166.4423828,104.9765625,174.0859375,100.2275391,182.765625,100.2275391c0.2558594,0,0.5136719,0.0048828,0.7714844,0.0126953C183.2792969,100.2314453,183.0224609,100.2275391,182.765625,100.2275391z M96.0556641,99.1152344c4.2167969,3.6630859,9.5332031,5.6826172,15.1630859,5.7265625l0.2001953,0.0009766c12.8232422,0,23.3476562-10.4453125,23.4472656-23.2841797c0.0019531-0.2382812,0-0.4755859-0.0048828-0.7138672c0.0048828,0.2373047,0.0068359,0.4755859,0.0048828,0.7138672c-0.0996094,12.8388672-10.625,23.2841797-23.4599609,23.2841797c-0.0009766,0-0.1875-0.0009766-0.1875-0.0009766C105.421875,104.796875,100.1269531,102.6435547,96.0556641,99.1152344z M185.4296875,100.3769531c1.8173828,0.2050781,3.5996094,0.6181641,5.3134766,1.234375l-0.0175781-0.0068359C189.0273438,100.9941406,187.2470703,100.5810547,185.4296875,100.3769531z M87.9375,79.6767578c0.0029297,0.4970703,0.0019531,1.0029297-0.0019531,1.5185547c-0.0439453,5.6142578,1.8837891,10.9482422,5.4619141,15.2167969c-3.4462891-4.1210938-5.5068359-9.4375-5.4619141-15.2177734C87.9394531,80.6787109,87.9404297,80.1738281,87.9375,79.6767578z M87.5751953,72.03125c0.1015625,1.0371094,0.1816406,2.1064453,0.2402344,3.2197266c-0.0576172-1.1074219-0.1376953-2.1699219-0.2373047-3.1972656c-0.0556641-0.5283203-0.1132812-1.0419922-0.171875-1.5439453L87.5751953,72.03125z M128.5517578,59.9960938c1.2421875,2.7900391,2.3583984,5.5908203,3.3369141,8.3701172c-0.9785156-2.7773438-2.0927734-5.5742188-3.3339844-8.3632812c-0.0410156-0.09375-0.0820312-0.1865234-0.1240234-0.2802734C128.4707031,59.8134766,128.5117188,59.9042969,128.5517578,59.9960938z M179.0029297,53.0996094c1.1445312,0.6806641,2.2910156,1.4306641,3.4287109,2.2236328C181.2314453,54.4853516,180.0957031,53.7490234,179.0029297,53.0996094z M173.15625,50.8789062C173.1572266,50.8789062,173.1572266,50.8789062,173.15625,50.8789062z M172.3046875,50.7421875c0.2792969,0.0400391,0.5566406,0.0839844,0.8339844,0.1337891C172.8613281,50.8261719,172.5839844,50.7822266,172.3046875,50.7421875z M172.2910156,50.7402344C172.2939453,50.7402344,172.2939453,50.7402344,172.2910156,50.7402344z M172.2773438,50.7382812C172.2783203,50.7382812,172.2783203,50.7382812,172.2773438,50.7382812z M161.9228516,49.6298828c1.1523438,0.3320312,2.4960938,0.4882812,3.9355469,0.5957031C164.4179688,50.1181641,163.0742188,49.9609375,161.9228516,49.6298828z"/><path fill="#FFFFFF" d="M64.5922852,12.999939c3.8046875,0,7.6658936,0.4957275,11.4111328,1.463623c4.5148926,1.1685791,8.8856201,2.9460449,13.0024414,5.1773071c4.1202393,2.2276001,8.0373535,4.8595581,11.6477051,7.8533325c3.6137695,2.9899292,6.9916992,6.2807617,10.0618896,9.8411865c3.0646973,3.5639038,5.862793,7.3660278,8.3951416,11.3549805c2.5430908,3.9854736,4.7775879,8.1740112,6.6971436,12.517395c1.9300537,4.3389282,3.6082764,8.8174438,4.942627,13.4127197l0.3365479,1.1405029c0.5222168,1.8336182,0.7947998,3.7714844,0.7792969,5.7744751c-0.0874023,11.2489014-9.2331543,20.307251-20.4622803,20.307251c-0.0537109,0-0.1082764-0.0002441-0.1621094-0.0006714c-11.3027344-0.0878296-20.3942871-9.3215942-20.3065186-20.6243896c0.0241699-3.1262817-0.0617676-6.2910767-0.3719482-9.4555054c-0.3300781-3.1549683-0.78125-6.3433838-1.4906006-9.4837036c-0.7072754-3.1403809-1.6343994-6.2485962-2.7962646-9.2768555c-1.1560059-3.0304565-2.5062256-6.0135498-4.1308594-8.8444824c-1.6270752-2.8250732-3.4598389-5.5600586-5.5841064-8.0582275c-2.1251221-2.4924927-4.4957275-4.7963867-7.1329346-6.8231201c-2.6333008-2.0366211-5.5460205-3.7644043-8.7470703-5.1196289c-3.1982422-1.3726196-6.6992188-2.3492432-10.477417-2.8370361l-0.1171875-0.0147095c-0.9129639-0.1204834-1.743042-0.7002563-2.1419678-1.6043701c-0.6082764-1.3786011,0.0162354-2.9892578,1.3947754-3.5975952c3.9538574-1.7445068,8.3702393-2.772522,12.9219971-3.0397949C63.0354004,13.020752,63.8123779,12.999939,64.5922852,12.999939 M208.5883789,24.1558838c7.3798828-0.0001831,14.5844727,1.4710693,20.958252,4.2671509c1.8972168,0.8322754,2.760498,3.0449829,1.9282227,4.9421387c-0.5761719,1.3135986-1.814209,2.1315308-3.1508789,2.234314l-0.1101074,0.0073853c-7.5664062,0.5647583-14.4890137,2.6018066-20.5039062,5.7108154c-6.013916,3.1154175-11.1662598,7.27771-15.215332,12.1531372c-0.987793,1.1712036-1.90979,2.3832397-2.7702637,3.6260376c-3.2302246-2.6167603-6.7380371-5.2243042-10.2429199-7.1837769c-3.7666016-2.1064453-7.921875-2.3496094-11.5878906-2.5634766c-2.0634766-0.1210938-4.0136719-0.2353516-5.3339844-0.6611328c-0.7626953-0.2461548-1.5140381-0.4859009-2.2595215-0.7206421c1.4602051-1.520874,2.9648438-2.9909668,4.5341797-4.37677c3.6843262-3.2210083,7.638916-6.0656738,11.7958984-8.4777832c8.3317871-4.7868652,17.4855957-7.8688965,26.6875-8.7072144C205.078125,24.2386475,206.8387451,24.1558838,208.5883789,24.1558838 M143.4342041,48.5621948c0.815918,0,1.6318359,0.0406494,2.4459229,0.1350098c5.0157471,0.581543,9.973877,2.1318359,14.8370361,3.701355c4.7799072,1.5426636,11.3492432,0.2416992,15.8354492,2.7506104c4.354248,2.4351196,8.8892822,6.112793,12.8320312,9.4689331c3.9418945,3.3553467,4.0668945,10.5959473,7.1650391,14.5037231c3.1923828,4.0268555,11.2658691,5.2801514,13.5509033,9.7507324c2.2994385,4.4989014-3.6638184,12.3378906-2.4672852,17.2084351c-4.5061035-2.6187744-9.2685547-4.8719482-14.1860352-6.6698608l-1.6835938-0.6210938c-2.3828125-0.8564453-4.8818359-1.3671875-7.4267578-1.515625c-0.5273438-0.03125-1.0498047-0.046875-1.5712891-0.046875c-14.0019531,0-25.6142578,10.9589844-26.4355469,24.9482422c-0.4160156,7.0664062,1.9462891,13.8710938,6.6494141,19.1611328c4.7041016,5.2900391,11.1855469,8.4316406,18.2519531,8.8457031c5.1933594,0.3056641,10.2421875,1.4404297,14.9902344,3.3671875c2.4003906,0.9814453,4.7685547,2.2246094,7.0761719,3.71875c2.2398682,1.4255371,4.3525391,3.079895,6.3201904,4.9398193c-0.6442871,1.2595825-1.3040771,2.4907227-1.9630127,3.6678467c-2.4361572,4.3515625-8.1347656,7.0562744-11.4920654,10.9967041c-3.3579102,3.9411011-4.9312744,10.2419434-8.8421631,13.3392334c-1.1151123,0.8830566-2.6026611,1.1688843-4.2666016,1.1688843c-3.0567627,0-6.7067871-0.9647827-9.7297363-0.9647827c-1.277832,0-2.4445801,0.1726074-3.4058838,0.6634521c-4.5511475,2.3236084-7.024292,8.7477417-11.8835449,10.1201782c-4.8962402,1.3828735-9.6829834,5.8312378-14.7362061,6.2359619c-0.1221924,0.0097656-0.2435303,0.0145264-0.3654785,0.0145264c-4.9243164,0-9.7164307-7.8017578-14.6481934-8.3735352c-0.3790283-0.0439453-0.7612305-0.0639038-1.1464844-0.0639038c-3.7919922,0-7.8572998,1.9326172-11.6431885,1.9326172c-0.9195557,0-1.8233643-0.1141357-2.7019043-0.3977051c-0.0893555-0.0288696-0.1729736-0.0708618-0.2615967-0.1012573c0.4139404-0.3807373,0.8378906-0.7476196,1.2453613-1.1370239c7.6630859-7.2900391,14.1611328-16.3867188,18.7832031-26.2890625l0.7636719-1.6230469c1.0585938-2.3007812,1.7822266-4.7460938,2.1503906-7.2675781c1.0224609-7.0048828-0.7441406-13.9873047-4.9746094-19.6630859c-4.2294922-5.6757812-10.4160156-9.3642578-17.4208984-10.3876953c-1.2744141-0.1855469-2.5712891-0.2802734-3.8515625-0.2802734c-13.0478516,0-24.3105469,9.7490234-26.1982422,22.6767578c-0.7509766,5.1484375-2.3164062,10.0800781-4.6445312,14.6435547c-0.7753906,1.5092773-1.6708984,2.9910278-2.6611328,4.4437256c-0.1640625-0.1882324-0.3425293-0.3639526-0.4978027-0.5598755c-3.1925049-4.0268555-1.5698242-10.7489624-3.8548584-15.2195435c-2.3251953-4.5490112-9.0334473-7.0878296-10.4068604-11.9448853c-1.3840332-4.8945312-0.5025635-10.2973633-0.9077148-15.348938c-0.4051514-5.0516968-2.1070557-10.2416382-1.520752-15.2941284c0.5819092-5.0139771,6.3847656-8.7174072,7.9553223-13.5787964c1.5435791-4.77771-3.2415771-12.4292603-0.7312012-16.9133301c2.4360352-4.3515625,9.2973633-6.1187744,12.6546631-10.0592041c1.7608643-2.0667114,3.8989258-3.5754395,6.0970459-4.9915161c0.026123,0.2351685,0.0550537,0.4520264,0.0803223,0.6930542c0.2578125,2.6289062,0.3701172,5.515625,0.34375,8.8251953c-0.1132812,14.5927734,11.6669922,26.5576172,26.2597656,26.6708984c0,0,0.2099609,0.0009766,0.2109375,0.0009766c14.4765625,0,26.3476562-11.78125,26.4599609-26.2607422c0.0195312-2.5341797-0.3193359-5.0458984-1.0253906-7.5205078l-0.3291016-1.1142578c-1.3525391-4.6611328-3.1103516-9.4316406-5.2158203-14.1640625c-1.324707-2.9986572-2.80896-5.9209595-4.4056396-8.7522583c0.5924072,0.0249634,1.1838379,0.0460205,1.7700195,0.0460205c0.6785889,0,1.3522949-0.0213013,2.0181885-0.074646C134.9177246,49.6627808,139.1851807,48.5620117,143.4342041,48.5621948 M16.5628662,92.0220947c0.0675049,0,0.1356201,0.0025024,0.2039795,0.0075684c0.9855957,0.0728149,1.8099365,0.6605835,2.2294922,1.4804688l0.0529785,0.1054077c1.7259521,3.3963013,3.819458,6.3673706,6.1845703,8.9205933c2.3496094,2.5618286,4.9537354,4.7268677,7.755127,6.5253906c2.793457,1.8054199,5.7585449,3.2666626,8.8190918,4.4335327c3.0656738,1.1641235,6.2567139,1.9743042,9.4637451,2.5604248c0.4470215,0.0809937,0.8969727,0.142334,1.3458252,0.2116089c-0.0108643,0.0806885-0.032959,0.1553955-0.0424805,0.2368164c-0.4746094,4.0888672,0.1992188,8.0273438,0.7929688,11.5009766c0.2998047,1.7558594,0.5830078,3.4130859,0.7080078,4.9638672c0.1240234,1.5546875,0.1044922,3.2460938,0.0839844,5.0361328c-0.0269775,2.2636719-0.0515137,4.7224121,0.2290039,7.2416382c-4.3725586-1.6970215-8.5949707-3.7719116-12.6135254-6.1688843c-4.0306396-2.3981934-7.8232422-5.206604-11.3029785-8.34198c-3.4819336-3.1309204-6.6213379-6.6530762-9.2355957-10.5152588c-2.6112061-3.8609619-4.6328125-8.1098022-5.925415-12.477417c-1.2738037-4.3781128-1.7854004-8.883606-1.4669189-13.1934204C13.9508057,93.1152344,15.1474609,92.0220947,16.5628662,92.0220947 M182.7652588,103.2281494c0.404541,0,0.8115234,0.0119019,1.2205811,0.0358887c2.0134277,0.1181641,3.9420166,0.5231323,5.7481689,1.1729126l1.6358643,0.6035767c9.5838623,3.50354,18.4561768,8.7210693,25.9111328,15.3140259c3.734375,3.2852783,7.1430664,6.8778687,10.1489258,10.7362061c2.9884033,3.8754272,5.5845947,7.9973755,7.7365723,12.2948608c4.265625,8.6102905,6.7789307,17.9362793,7.0499268,27.1723633c0.307251,9.2219849-1.6845703,18.2748413-5.6218262,25.932312c-0.6651611,1.2937012-1.9781494,2.0368042-3.3392334,2.0368042c-0.5772705,0-1.1633301-0.1337891-1.7121582-0.4159546c-1.2756348-0.6558838-2.0158691-1.9418335-2.0362549-3.2824097l-0.0007324-0.1102905c-0.0985107-7.586792-1.7060547-14.621582-4.4394531-20.8161621c-2.7397461-6.1941528-6.5773926-11.5926514-11.1945801-15.9337769c-2.2873535-2.1835327-4.7583008-4.1100464-7.3520508-5.7610474c-2.5761719-1.6687622-5.2647705-3.0810547-8.0270996-4.2109985c-5.538208-2.2478638-11.2574463-3.4707642-16.9104004-3.8027344c-11.3023682-0.6635742-19.9268799-10.3640137-19.2631836-21.6664429C162.9588623,111.6339722,171.9929199,103.2281494,182.7652588,103.2281494 M109.2268066,139.7994385c0.9846191,0,1.9830322,0.071167,2.9862061,0.2175903c11.203125,1.6350098,18.9597168,12.0425415,17.324585,23.2457275c-0.2912598,1.9958496-0.8608398,3.8822632-1.6638184,5.6256714l-0.7423096,1.5778198c-4.3164062,9.2463379-10.2790527,17.6360474-17.4898682,24.4951782c-3.5948486,3.437439-7.4677734,6.5238647-11.5708008,9.1860962c-4.1184082,2.6433105-8.4488525,4.8746948-12.9157715,6.6483154c-7.8773193,3.0888062-16.1901855,4.7762451-24.3621826,4.7762451c-1.1085205,0-2.2145996-0.0310669-3.3165283-0.0938721c-9.2142334-0.4886475-18.0617676-3.2531128-25.3514404-7.8355103c-1.7540283-1.1026001-2.2821045-3.4182739-1.1795654-5.1723022c0.7126465-1.1337891,1.932251-1.7553101,3.1794434-1.7553101c0.088623,0,0.1774902,0.0031738,0.2662354,0.0094604l0.1098633,0.0088501c1.3846436,0.1016846,2.7546387,0.1514282,4.1092529,0.1514282c6.0480957,0,11.7773438-0.9918823,17.012085-2.7807007c6.4072266-2.1958008,12.116333-5.5539551,16.8391113-9.7800293c2.3724365-2.0906372,4.5047607-4.3864136,6.3731689-6.8282471c1.8845215-2.4227905,3.5233154-4.9796753,4.8869629-7.6343384c2.7167969-5.3239746,4.4279785-10.9165039,5.2457275-16.5197754C90.4559326,147.1416626,99.2147217,139.7994385,109.2268066,139.7994385 M167.7852783,201.3704834c0.385376,1.1431274,0.8026123,2.2791138,1.2731934,3.399231c1.0931396,2.6834106,2.4351807,5.2930298,4.0279541,7.7683716c3.1352539,5.0098267,7.3015137,9.440979,12.3771973,13.0403442c5.081543,3.6073608,11.1582031,6.3067017,18.2810059,7.6882935l0.1281738,0.0248413c1.8054199,0.3502197,2.9851074,2.0977173,2.6350098,3.9031372c-0.2132568,1.0991821-0.9628906,1.9744263-1.909668,2.4057007C199.5070801,241.8771362,193.7380371,243,187.8344727,243c-2.8520508,0-5.7363281-0.2622681-8.5891113-0.7831421c-8.7952881-1.5784912-17.2086182-5.5274048-24.6174316-10.8753662c-3.6870117-2.7053833-7.1328125-5.7736206-10.2989502-9.1364746c-3.1403809-3.3812866-5.9995117-7.0545044-8.5334473-10.9649658c-0.0411377-0.0640259-0.0786133-0.1306763-0.1196289-0.1948242c2.1171875,1.3610229,4.5172119,2.4049683,7.2576904,2.4049683c0.2822266,0,0.5615234-0.0107422,0.84375-0.0341797c4.1904297-0.3349609,7.7685547-2.3212891,10.9248047-4.0732422c1.8222656-1.0117188,3.5429688-1.9677734,4.9648438-2.3681641C163.2330322,205.9666138,165.7504883,203.6224365,167.7852783,201.3704834 M64.5922852,6.999939c-0.8850098,0-1.7780762,0.0240479-2.6544189,0.0714111c-5.3619385,0.3148193-10.4060059,1.5058594-15.0201416,3.541687c-4.4033203,1.9429932-6.4049072,7.105957-4.4621582,11.5090942c1.2215576,2.7686768,3.8449707,4.7346802,6.8465576,5.1306763l0.1538086,0.0194702c3.0994873,0.4002075,6.0869141,1.2077026,8.8592529,2.397522c2.6710205,1.1309204,5.1658936,2.5912476,7.442749,4.3521118c2.2144775,1.7019653,4.3083496,3.706665,6.237915,5.9697876c1.7224121,2.0256958,3.3435059,4.3696899,4.9504395,7.1599121c1.3570557,2.364563,2.5766602,4.9802856,3.7242432,7.9884644c1.036499,2.7015991,1.8927002,5.5431519,2.5488281,8.456665c0.1138916,0.5042725,0.22229,1.0169678,0.3256836,1.5412598l-2.282959,1.4707031c-2.5096436,1.6167603-5.1447754,3.4801025-7.4146729,6.144165c-0.8726807,1.024292-2.6925049,2.117981-4.4525146,3.1756592c-3.1641846,1.9015503-6.7506104,4.0569458-8.8706055,7.8439941c-2.4737549,4.4186401-1.3566895,9.3342896-0.4589844,13.2840576c0.336792,1.4822998,0.9006348,3.9631348,0.7106934,4.734375c-0.3643799,1.1259155-1.6074219,2.6752319-2.8095703,4.173584c-1.0732422,1.3376465-2.276001,2.836731-3.2807617,4.5506592l-1.152832-0.1779175l-0.4162598-0.0628052c-0.258667-0.0385742-0.5174561-0.0761719-0.7749023-0.1228638c-3.1582031-0.5772095-5.9099121-1.3188477-8.4035645-2.2657471c-2.7716064-1.0566406-5.3620605-2.3575439-7.6922607-3.8634644c-2.4378662-1.5651855-4.6499023-3.4263916-6.5900879-5.5418091c-2.0703125-2.2351074-3.8323975-4.7791138-5.2575684-7.583313l-0.0404053-0.0805664c-1.3994141-2.7350464-4.1309814-4.5477905-7.1488037-4.770752c-0.2171631-0.0160522-0.4326172-0.0238647-0.6461182-0.0238647c-4.5443115,0-8.3665771,3.5513916-8.7017822,8.085083c-0.3717041,5.0297852,0.1967773,10.1813965,1.6894531,15.3119507c1.4801025,5.0014038,3.7371826,9.7574463,6.7164307,14.1625366c2.8115234,4.1535645,6.2407227,8.0609131,10.1939697,11.6156006c3.7927246,3.4174194,7.9146729,6.4592285,12.2467041,9.0366821c4.3371582,2.5870361,8.8847656,4.81073,13.5106201,6.6060791l4.256958,1.6520996c1.602417,2.7735596,4.0109863,4.7981567,6.0458984,6.5085449c1.4750977,1.2398071,3.0003662,2.5218506,3.5073242,3.5136108c0.5056152,0.9891357,0.692749,2.9138184,0.8737793,4.7752075c0.3394775,3.4900513,0.7618408,7.8334961,3.6219482,11.44104c0.2368164,0.2988892,0.4559326,0.5358276,0.6009521,0.692688l0.0792236,0.0863037l0.7614746,0.8737183c-1.0930176,1.2168579-2.2518311,2.364624-3.4713135,3.4393311c-4.2513428,3.8039551-9.2250977,6.6890869-14.8175049,8.6056519c-4.7685547,1.6294556-9.8394775,2.456543-15.0670166,2.456543c-1.2128906,0-2.4476318-0.0454712-3.6696777-0.1352539l-0.0667725-0.0054932l-0.0281982-0.0022583l-0.0281982-0.0020752c-0.2307129-0.0164185-0.461792-0.0245972-0.6923828-0.0245972c-3.3758545-0.0001221-6.463501,1.7054443-8.2592773,4.5623169c-2.8613281,4.552063-1.4858398,10.5834961,3.0661621,13.4450073c8.2408447,5.1802979,18.0015869,8.2050781,28.2269287,8.7473755c1.1820068,0.0673828,2.4127197,0.1022949,3.6342773,0.1022949c8.8358154,0,17.7692871-1.7462769,26.5524902-5.1903687c4.8309326-1.9180298,9.5218506-4.3322144,13.9663086-7.1848145c2.0200195-1.3106079,3.9969482-2.7215576,5.9217529-4.2254028l3.2243652,1.1067505c0.1654053,0.0664062,0.3270264,0.1259766,0.4916992,0.1791382c1.414917,0.4567871,2.9440918,0.6881714,4.5460205,0.6881714c2.6195068,0,5.079834-0.6054077,7.2504883-1.1395264c0.7404785-0.1821899,1.4627686-0.3599243,2.1394043-0.5007324l5.7105713,8.9330444c0.0545654,0.0906372,0.1022949,0.1679688,0.1512451,0.2442627c2.7287598,4.2111816,5.8146973,8.1763306,9.1854248,11.805603c3.4693604,3.6850586,7.2099609,7.0028076,11.145752,9.8907471c8.5510254,6.1726685,17.911499,10.2932129,27.1070557,11.9435425C181.3685303,248.7036743,184.6208496,249,187.8344727,249c6.8314209,0,13.4750977-1.3563232,19.2131348-3.9223633c2.7908936-1.2711182,4.7768555-3.7844238,5.3503418-6.7400513c0.9794922-5.0509033-2.3323975-9.956604-7.3824463-10.9362183l-0.1303711-0.0252075c-5.9558105-1.1552734-11.3223877-3.406311-15.9483643-6.6903076c-4.3829346-3.1080933-8.0037842-6.9197388-10.7641602-11.3307495l-0.0200195-0.0319824l-0.0203857-0.0316772c-1.3616943-2.1161499-2.5449219-4.3990479-3.5170898-6.7853394l-0.0123291-0.0302734l-0.0126953-0.0302124c-0.3764648-0.8960571-0.7425537-1.8748169-1.1192627-2.9920654l-0.9904785-2.9379272c0.0263672-0.015686,0.0527344-0.0308228,0.0788574-0.0453491c0.0915527-0.0184937,0.324585-0.0540161,0.7652588-0.0540161c1.0767822,0,2.487915,0.2034912,3.9818115,0.4189453c1.8607178,0.2683716,3.7849121,0.5458374,5.7479248,0.5458374c3.2827148,0,5.8967285-0.8063354,7.9914551-2.4650879c3.2321777-2.5598145,5.1114502-6.1520386,6.7695312-9.3214722c0.9824219-1.8776855,1.9102783-3.6513062,2.9147949-4.8302612c1.0296631-1.2084961,2.5814209-2.4293213,4.2243652-3.7218628c2.7858887-2.1917725,5.9434814-4.6759644,7.9361572-8.2351074c0.3510742-0.6273193,0.6998291-1.2645874,1.0439453-1.9074707c2.239624,2.8441162,4.1262207,5.9955444,5.6451416,9.4295654c2.5202637,5.7114868,3.8421631,11.9263306,3.927124,18.467041l0.0003662,0.0719604l0.0002441,0.0258179l0.0003662,0.0258789c0.0549316,3.6095581,2.0826416,6.8768921,5.2918701,8.5270386c1.3740234,0.706543,2.9147949,1.0799561,4.4558105,1.0799561c3.6723633,0,6.99646-2.0281982,8.6751709-5.2932129c4.4510498-8.6566162,6.6235352-18.6416626,6.2825928-28.8756104c-0.2884521-9.8339844-2.94104-20.09021-7.6702881-29.6361084c-2.3272705-4.6477051-5.1365967-9.1130981-8.3614502-13.2952271c-3.2185059-4.1314087-6.8922119-8.0186157-10.9372559-11.5772095c-1.9858398-1.7561646-4.0787354-3.4295654-6.2636719-5.0112915l-1.5074463-6.1359253c-0.0689697-0.8446045,0.758667-3.2825928,1.255127-4.7451782c1.3826904-4.0732422,3.1033936-9.1425171,0.7149658-13.8154297c-2.1231689-4.1539917-6.1564941-6.1929932-9.7148438-7.9920654c-1.7045898-0.8616943-3.8258057-1.9342041-4.4769287-2.7553711c-0.713623-0.9002075-1.350708-2.8310547-1.9669189-4.6982422c-1.0117188-3.065979-2.244751-6.8026733-4.980835-9.6727905l0.3537598-0.5109863c0.7681885-1.109436,1.5836182-2.177063,2.4238281-3.1732788c3.6448975-4.3884888,8.1397705-7.9747314,13.3886719-10.6938477c5.5457764-2.8665161,11.6677246-4.5681763,18.1905518-5.0550537l0.0662842-0.0042725l0.0286865-0.0019531l0.0285645-0.0021362c3.5994873-0.2767944,6.7359619-2.501709,8.1855469-5.8065186c1.0462646-2.3849487,1.1011963-5.0348511,0.1544189-7.4613647c-0.9466553-2.4265747-2.7817383-4.3391113-5.1668701-5.385437c-7.1174316-3.1223145-15.1976318-4.772644-23.3673096-4.772644h-0.0013428c-1.9405518,0-3.9050293,0.0932007-5.8387451,0.2770996c-9.7973633,0.8925171-19.8710938,4.1706543-29.1085205,9.4777832c-4.4959717,2.6087646-8.7801514,5.6873169-12.7559814,9.163147c-1.6151123,1.4262085-3.2149658,2.9696655-4.9130859,4.7384033L153.78479,44.090332c-2.3834229-0.5974731-4.7601318-1.0687256-7.213623-1.3532104c-1.0013428-0.1160278-2.0566406-0.1749268-3.1367188-0.1749268l0,0c-0.0001221,0-0.0001221,0-0.0002441,0c-2.9714355-0.000061-5.7631836,0.4268799-8.4627686,0.8397827c-1.6750488,0.2561646-3.2572021,0.4981689-4.7719727,0.6195068c-0.4661865,0.0373535-0.9697266,0.055481-1.5391846,0.055481c-0.4848633,0-1.0158691-0.0195312-1.5174561-0.0407104l-4.0070801-0.1687622c-2.4317627-3.6843262-5.0758057-7.1936035-7.8709717-10.4441528c-3.2518311-3.7710571-6.8791504-7.3192139-10.786377-10.5519409c-3.8752441-3.213501-8.1225586-6.0775757-12.6190186-8.5085449c-4.6685791-2.5302734-9.4992676-4.4517212-14.3525391-5.7078857C73.2567139,7.5565796,68.9123535,6.999939,64.5922852,6.999939L64.5922852,6.999939z"/></g></g><g id="Layer_3" display="none"><rect x="-1503.9119873" y="-654.074707" display="inline" fill="#FF0000" width="1885.8239746" height="1013.5786133"/></g><g id="Layer_2"><path d="M231.4748535,33.3651733c-0.5761719,1.3135986-1.814209,2.1315308-3.1508789,2.234314l-0.1101074,0.0073853c-7.5664062,0.5647583-14.4890137,2.6018066-20.5039062,5.7108154c-6.013916,3.1154175-11.1662598,7.27771-15.215332,12.1531372c-0.987793,1.1712036-1.90979,2.3832397-2.7702637,3.6260376c-3.2302246-2.6167603-6.7380371-5.2243042-10.2429199-7.1837769c-3.7666016-2.1064453-7.921875-2.3496094-11.5878906-2.5634766c-2.0634766-0.1210938-4.0136719-0.2353516-5.3339844-0.6611328c-0.7626953-0.2461548-1.5140381-0.4859009-2.2595215-0.7206421c1.4602051-1.520874,2.9648438-2.9909668,4.5341797-4.37677c3.6843262-3.2210083,7.638916-6.0656738,11.7958984-8.4777832c8.3317871-4.7868652,17.4855957-7.8688965,26.6875-8.7072144c9.185791-0.8735352,18.3439941,0.5579834,26.2290039,4.0169678C231.4438477,29.2553101,232.3071289,31.4680176,231.4748535,33.3651733z M54.1601562,138.0048828c0.0205078-1.7900391,0.0400391-3.4814453-0.0839844-5.0361328c-0.125-1.5507812-0.4082031-3.2080078-0.7080078-4.9638672c-0.59375-3.4736328-1.2675781-7.4121094-0.7929688-11.5009766c0.0095215-0.0814209,0.0316162-0.1561279,0.0424805-0.2368164c-0.4488525-0.0692749-0.8988037-0.1306152-1.3458252-0.2116089c-3.2070312-0.5861206-6.3980713-1.3963013-9.4637451-2.5604248c-3.0605469-1.1668701-6.0256348-2.6281128-8.8190918-4.4335327c-2.8013916-1.7985229-5.4055176-3.963562-7.755127-6.5253906c-2.3651123-2.5532227-4.4586182-5.524292-6.1845703-8.9205933l-0.0529785-0.1054077c-0.4195557-0.8198853-1.2438965-1.4076538-2.2294922-1.4804688c-1.5026855-0.111084-2.8110352,1.0171509-2.9221191,2.5198975c-0.3184814,4.3098145,0.1931152,8.8153076,1.4669189,13.1934204c1.2926025,4.3676147,3.314209,8.6164551,5.925415,12.477417c2.6142578,3.8621826,5.7536621,7.3843384,9.2355957,10.5152588c3.4797363,3.135376,7.2723389,5.9437866,11.3029785,8.34198c4.0185547,2.3969727,8.2409668,4.4718628,12.6135254,6.1688843C54.1086426,142.7272949,54.1331787,140.2685547,54.1601562,138.0048828z M203.8728027,233.2915649l-0.1281738-0.0248413c-7.1228027-1.3815918-13.1994629-4.0809326-18.2810059-7.6882935c-5.0756836-3.5993652-9.2419434-8.0305176-12.3771973-13.0403442c-1.5927734-2.4753418-2.9348145-5.0849609-4.0279541-7.7683716c-0.4705811-1.1201172-0.8878174-2.2561035-1.2731934-3.399231c-2.03479,2.2519531-4.5522461,4.5961304-8.1182861,5.604126c-1.421875,0.4003906-3.1425781,1.3564453-4.9648438,2.3681641c-3.15625,1.7519531-6.734375,3.7382812-10.9248047,4.0732422c-0.2822266,0.0234375-0.5615234,0.0341797-0.84375,0.0341797c-2.7404785,0-5.1405029-1.0439453-7.2576904-2.4049683c0.0410156,0.0641479,0.0784912,0.1307983,0.1196289,0.1948242c2.5339355,3.9104614,5.3930664,7.5836792,8.5334473,10.9649658c3.1661377,3.362854,6.6119385,6.4310913,10.2989502,9.1364746c7.4088135,5.3479614,15.8221436,9.296875,24.6174316,10.8753662c8.7578125,1.598999,17.802124,0.7602539,25.3527832-2.6164551c0.9467773-0.4312744,1.6964111-1.3065186,1.909668-2.4057007C206.8579102,235.3892822,205.6782227,233.6417847,203.8728027,233.2915649z M189.733963,104.4369431c-1.8061676-0.649765-3.7346344-1.0547485-5.7481384-1.172905c-11.3024292-0.6637039-21.0028687,7.9608917-21.6664276,19.263237c-0.6636353,11.3024521,7.9608459,21.002861,19.2633057,21.6664505c5.6529083,0.3319702,11.3721161,1.5548706,16.9103546,3.8027649c2.7623138,1.1298828,5.4508667,2.5422363,8.0270844,4.2109375c2.5937347,1.6510468,5.0647125,3.5775757,7.3519897,5.7611084c4.6172943,4.3410645,8.4549408,9.7395935,11.1946716,15.9337311c2.7333832,6.1945801,4.3409576,13.2294006,4.4394684,20.8161621l0.0006409,0.1102905c0.0203857,1.3406219,0.7606659,2.6265564,2.0363007,3.2824097c1.8424683,0.9473267,4.1040649,0.2216949,5.0514069-1.6208191c3.9371948-7.6575012,5.9290161-16.7103271,5.6218567-25.9323425c-0.2709961-9.2360687-2.7844086-18.5620728-7.0499878-27.172348c-2.151947-4.2974701-4.7481384-8.4194489-7.736557-12.2948608c-3.0058594-3.8583679-6.4145355-7.4509506-10.1489258-10.7362213c-7.4549866-6.5929184-16.327301-11.8104401-25.9111481-15.3140335L189.733963,104.4369431z M50.2040634,21.3190613c3.7782822,0.4877949,7.2792091,1.4644585,10.4774323,2.8370476c3.2011299,1.3552132,6.113739,3.0830078,8.7471161,5.1196785c2.6372147,2.0266781,5.0077438,4.3305855,7.1328659,6.8230972c2.1242599,2.4981804,3.9570465,5.23312,5.5841293,8.0582314c1.6246948,2.8309212,2.974884,5.8140068,4.1309357,8.8444557c1.1617508,3.028286,2.0889206,6.1364899,2.7962265,9.2768936c0.7093658,3.1403198,1.1605225,6.3286972,1.4905853,9.4836884c0.3101501,3.1644211,0.3961792,6.329216,0.3718872,9.4554749c-0.0877304,11.3028259,9.0038223,20.5365906,20.3066101,20.6244049c11.302742,0.0876923,20.5365601-9.0038757,20.6243439-20.3065872c0.0155487-2.0029831-0.2571106-3.9408264-0.7793274-5.7744827l-0.3364716-1.1404724c-1.3343964-4.5952988-3.0125504-9.0737991-4.9426956-13.4127197c-1.9195023-4.3433647-4.1540146-8.5319252-6.6970825-12.5173874c-2.5324173-3.988987-5.330452-7.791069-8.3952255-11.3549919c-3.0701904-3.5604286-6.448082-6.8512611-10.0618286-9.8411942c-3.6103363-2.9937611-7.5274124-5.6257191-11.6477203-7.853344c-4.1168213-2.2312183-8.4874878-4.008728-13.002388-5.1772642c-4.5128479-1.1662588-9.1935196-1.6469145-13.7417297-1.4009399c-4.5518188,0.2672577-8.9681892,1.2952499-12.9220161,3.0397787c-1.3785629,0.6083031-2.0030861,2.2190056-1.394783,3.5975704c0.3988876,0.9041538,1.2290039,1.4839211,2.1420135,1.6043835L50.2040634,21.3190613z M203.2978516,157.2685547c-2.3076172-1.4941406-4.6757812-2.7373047-7.0761719-3.71875c-4.7480469-1.9267578-9.796875-3.0615234-14.9902344-3.3671875c-7.0664062-0.4140625-13.5478516-3.5556641-18.2519531-8.8457031c-4.703125-5.2900391-7.0654297-12.0947266-6.6494141-19.1611328c0.8212891-13.9892578,12.4335938-24.9482422,26.4355469-24.9482422c0.5214844,0,1.0439453,0.015625,1.5712891,0.046875c2.5449219,0.1484375,5.0439453,0.6591797,7.4267578,1.515625l1.6835938,0.6210938c4.9174805,1.7979126,9.6799316,4.0510864,14.1860352,6.6698608c-1.1965332-4.8705444,4.7667236-12.7095337,2.4672852-17.2084351c-2.2850342-4.4705811-10.3585205-5.723877-13.5509033-9.7507324c-3.0981445-3.9077759-3.2231445-11.1483765-7.1650391-14.5037231c-3.942749-3.3561401-8.4777832-7.0338135-12.8320312-9.4689331c-4.4862061-2.5089111-11.055542-1.2079468-15.8354492-2.7506104c-4.8631592-1.569519-9.8212891-3.119812-14.8370361-3.701355c-0.8140869-0.0943604-1.6300049-0.1350098-2.4459229-0.1350098c-4.2490234-0.0001831-8.5164795,1.1005859-12.7557373,1.4401245c-0.6658936,0.0533447-1.3395996,0.074646-2.0181885,0.074646c-0.5861816,0-1.1776123-0.0210571-1.7700195-0.0460205c1.5966797,2.8312988,3.0809326,5.7536011,4.4056396,8.7522583c2.1054688,4.7324219,3.8632812,9.5029297,5.2158203,14.1640625l0.3291016,1.1142578c0.7060547,2.4746094,1.0449219,4.9863281,1.0253906,7.5205078c-0.1123047,14.4794922-11.9833984,26.2607422-26.4599609,26.2607422c-0.0009766,0-0.2109375-0.0009766-0.2109375-0.0009766c-14.5927734-0.1132812-26.3730469-12.078125-26.2597656-26.6708984c0.0263672-3.3095703-0.0859375-6.1962891-0.34375-8.8251953c-0.0252686-0.2410278-0.0541992-0.4578857-0.0803223-0.6930542c-2.1981201,1.4160767-4.3361816,2.9248047-6.0970459,4.9915161c-3.3572998,3.9404297-10.2186279,5.7076416-12.6546631,10.0592041c-2.510376,4.4840698,2.2747803,12.1356201,0.7312012,16.9133301c-1.5705566,4.8613892-7.3734131,8.5648193-7.9553223,13.5787964c-0.5863037,5.0524902,1.1156006,10.2424316,1.520752,15.2941284c0.4051514,5.0515747-0.4763184,10.4544067,0.9077148,15.348938c1.3734131,4.8570557,8.081665,7.395874,10.4068604,11.9448853c2.2850342,4.4705811,0.6623535,11.192688,3.8548584,15.2195435c0.1552734,0.1959229,0.3337402,0.3716431,0.4978027,0.5598755c0.9902344-1.4526978,1.8857422-2.9344482,2.6611328-4.4437256c2.328125-4.5634766,3.8935547-9.4951172,4.6445312-14.6435547c1.8876953-12.9277344,13.1503906-22.6767578,26.1982422-22.6767578c1.2802734,0,2.5771484,0.0947266,3.8515625,0.2802734c7.0048828,1.0234375,13.1914062,4.7119141,17.4208984,10.3876953c4.2304688,5.6757812,5.9970703,12.6582031,4.9746094,19.6630859c-0.3681641,2.5214844-1.0917969,4.9667969-2.1503906,7.2675781l-0.7636719,1.6230469c-4.6220703,9.9023438-11.1201172,18.9990234-18.7832031,26.2890625c-0.4074707,0.3894043-0.8314209,0.7562866-1.2453613,1.1370239c0.088623,0.0303955,0.1722412,0.0723877,0.2615967,0.1012573c0.87854,0.2835693,1.7823486,0.3977051,2.7019043,0.3977051c3.7858887,0,7.8511963-1.9326172,11.6431885-1.9326172c0.3852539,0,0.7674561,0.0199585,1.1464844,0.0639038c4.9317627,0.5717773,9.723877,8.3735352,14.6481934,8.3735352c0.1219482,0,0.2432861-0.0047607,0.3654785-0.0145264c5.0532227-0.4047241,9.8399658-4.8530884,14.7362061-6.2359619c4.8592529-1.3724365,7.3323975-7.7965698,11.8835449-10.1201782c0.9613037-0.4908447,2.1280518-0.6634521,3.4058838-0.6634521c3.0229492,0,6.6729736,0.9647827,9.7297363,0.9647827c1.6639404,0,3.1514893-0.2858276,4.2666016-1.1688843c3.9108887-3.09729,5.4842529-9.3981323,8.8421631-13.3392334c3.3572998-3.9404297,9.0559082-6.6451416,11.4920654-10.9967041c0.6589355-1.177124,1.3187256-2.4082642,1.9630127-3.6678467C207.6503906,160.3484497,205.5377197,158.6940918,203.2978516,157.2685547z M127.8737259,168.888443c0.8029861-1.743454,1.3726425-3.6298523,1.6638565-5.6256714c1.6351471-11.2032013-6.1214981-21.6107483-17.3246307-23.2457275c-11.2032166-1.6351013-21.6107178,6.1214294-23.2457504,17.3246765c-0.8178406,5.6032867-2.5290146,11.1958466-5.2457581,16.5197906c-1.3637161,2.6546631-3.0024796,5.2115173-4.8869705,7.6343689c-1.8684006,2.4418182-4.000679,4.7375946-6.3731766,6.8282166c-4.7227936,4.226059-10.4319229,7.5842438-16.8391075,9.7800446c-6.4070625,2.1894379-13.554245,3.1848602-21.121273,2.6292572l-0.1099472-0.0088654c-1.3373795-0.0951996-2.6823254,0.5315094-3.4456577,1.7458954c-1.102562,1.7539673-0.5745087,4.0696869,1.1795216,5.1722717c7.2897453,4.5823975,16.1372795,7.3468781,25.3514595,7.8355103c9.2250633,0.5258636,18.7329597-1.1745911,27.6787682-4.682373c4.4669113-1.7736359,8.7972717-4.0049896,12.9157715-6.6483459c4.103035-2.6622162,7.975975-5.748642,11.570816-9.1860504c7.2107773-6.8591614,13.1734161-15.2488861,17.4897995-24.4951782L127.8737259,168.888443z"/></g></svg>
