<?xml version="1.0" encoding="utf-8"?><svg version="1.1" xmlns="http://www.w3.org/2000/svg" xmlns:xlink="http://www.w3.org/1999/xlink" x="0px" y="0px" viewBox="0 0 256 256" enable-background="new 0 0 256 256" xml:space="preserve"><g id="Base" display="none"><path display="inline" fill="#F0D400" d="M223,243H33c-11,0-20-9-20-20V33c0-11,9-20,20-20h190c11,0,20,9,20,20v190C243,234,234,243,223,243z"/><rect x="13" y="119.8225174" display="inline" fill="#FFFFFF" width="230" height="16.3549614"/><rect x="13" y="119.8225174" transform="matrix(-1.836970e-16 1 -1 -1.836970e-16 256 1.724041e-08)" display="inline" fill="#FFFFFF" width="230" height="16.3549614"/><path display="inline" fill="#FFFFFF" d="M202.3816376,222.3816376H53.6183548c-11,0-20-9-20-20V53.6183548c0-11,9-20,20-20h148.7632751c11,0,20,9,20,20v148.7632751C222.3816376,213.3816376,213.3816376,222.3816376,202.3816376,222.3816376z"/><path display="inline" fill="#F0D400" d="M184.6767578,204.6767578H71.3232422c0-11-9-20-20-20V71.3232422c11,0,20-9,20-20h113.3535156c0,11,9,20,20,20v113.3535156C193.6767578,184.6767578,184.6767578,193.6767578,184.6767578,204.6767578z"/><path display="inline" fill="#FFFFFF" d="M192.7498169,123.5016556c-6.7824402-6.5716476-13.4515228-16.3735504-17.5605164-25.9749908c-1.4245453-3.3286819-5.3869324-4.7358322-8.6191864-3.1043167C157.7754974,98.8615189,144.2695618,109.5322952,128,109.5322952S98.2245026,98.8615189,89.4298859,94.422348c-3.232254-1.6315155-7.1946411-0.2243652-8.6191635,3.1043167c-4.109024,9.6014404-10.7780991,19.4033432-17.5605316,25.9749908c-2.5338745,2.4551544-2.5338745,6.5415115,0,8.9966354c6.7824326,6.5716858,13.4515076,16.3735809,17.5605316,25.9750366c1.4245224,3.3286896,5.3869095,4.7358398,8.6191635,3.1043243C98.2245026,157.1384735,109.249176,146.4677124,128,146.4677124s29.775528,10.6707611,38.5701141,15.1099396c3.232254,1.6315155,7.1946411,0.2243652,8.6191864-3.1043243c4.1089935-9.6014557,10.7780762-19.4033508,17.5605164-25.9750366C195.2836914,130.0431671,195.2836914,125.95681,192.7498169,123.5016556z"/></g><g id="Layer_3" display="none"><rect x="-951.9119873" y="-654.074707" display="inline" fill="#FF0000" width="1885.8239746" height="1013.5786133"/></g><g id="Layer_2"><path d="M136.4985352,13H223c11,0,20,9,20,20v86.5014648h-20.6183472V53.6183472c0-11-9-20-20-20h-65.8831177V13z M33.6183472,119.5014648V53.6183472c0-11,9-20,20-20h65.8831177V13H33c-11,0-20,9-20,20v86.5014648H33.6183472z M119.5014648,222.3816528H53.6183472c-11,0-20-9-20-20v-65.8831787H13V223c0,11,9,20,20,20h86.5014648V222.3816528z M222.3816528,136.4984741v65.8831787c0,11-9,20-20,20h-65.8831177V243H223c11,0,20-9,20-20v-86.5015259H222.3816528z M209,68.1276245v119.7446899c-11.6202393,0-21.1276245,9.5074463-21.1276245,21.1276855H68.1276245c0-11.6202393-9.5073853-21.1276855-21.1276245-21.1276855V68.1276245c11.6202393,0,21.1276245-9.5074463,21.1276245-21.1276245h119.744751C187.8723755,58.6201782,197.3797607,68.1276245,209,68.1276245z M195.1629639,123.3339844c-7.0352173-6.8165283-13.9528198-16.9837646-18.2149658-26.9430542c-1.4776611-3.4526978-5.5877075-4.9122925-8.9404297-3.2199707C158.8851929,97.7755737,144.8759155,108.8439941,128,108.8439941S97.1148071,97.7755737,87.9924316,93.1709595c-3.3527222-1.6923218-7.4627686-0.2327271-8.9403687,3.2199707c-4.262207,9.9592896-11.1798096,20.1265259-18.2150269,26.9430542c-2.6282959,2.5466919-2.6282959,6.7853394,0,9.3319702c7.0352173,6.8165894,13.9528198,16.9837646,18.2150269,26.9430542c1.4776001,3.4527588,5.5876465,4.9123535,8.9403687,3.2200317C97.1148071,158.2244263,108.550354,147.1559448,128,147.1559448s30.8851929,11.0684814,40.0075684,15.6730957c3.3527222,1.6923218,7.4627686,0.2327271,8.9404297-3.2200317c4.262146-9.9592896,11.1797485-20.1264648,18.2149658-26.9430542C197.7912598,130.1193237,197.7912598,125.8806763,195.1629639,123.3339844z"/></g></svg>
