<?xml version="1.0" encoding="utf-8"?><svg version="1.1" xmlns="http://www.w3.org/2000/svg" xmlns:xlink="http://www.w3.org/1999/xlink" x="0px" y="0px" viewBox="0 0 256 256" enable-background="new 0 0 256 256" xml:space="preserve"><g id="Base" display="none"><polygon display="inline" fill="#FF0000" points="13,128 29.3421593,187.1127777 85.2138977,234.7705231 128,243 216.4157715,201.5336456 236.8797302,165.1089935 243,128 213.0902405,50.6386986 190.0443726,31.2196007 128,13 69.0171509,29.2625332 36.9559937,57.7464409 "/><polygon display="inline" fill="none" stroke="#FFFFFF" stroke-width="7" stroke-linejoin="round" stroke-miterlimit="10" points="165.8485565,83.5567398 108.4352798,73.0005569 70.586731,117.4438248 90.1514435,172.4432678 147.5647125,182.9994354 185.413269,138.5561829 "/><polyline display="inline" fill="none" stroke="#FFFFFF" stroke-width="7" stroke-linejoin="round" stroke-miterlimit="10" points="29.3421593,187.1127777 90.1514435,172.4432678 85.2138977,234.7705231 "/><polyline display="inline" fill="none" stroke="#FFFFFF" stroke-width="7" stroke-linejoin="round" stroke-miterlimit="10" points="128,243 147.5647125,182.9994354 216.4157715,201.5336456 185.413269,138.5561829 236.8797302,165.1089935 "/><polyline display="inline" fill="none" stroke="#FFFFFF" stroke-width="7" stroke-linejoin="round" stroke-miterlimit="10" points="213.0902405,50.6386986 165.8485565,83.5567398 243,128 "/><polyline display="inline" fill="none" stroke="#FFFFFF" stroke-width="7" stroke-linejoin="round" stroke-miterlimit="10" points="69.0171509,29.2625332 108.4352798,73.0005569 128,13 "/><line display="inline" fill="none" stroke="#FFFFFF" stroke-width="7" stroke-linejoin="round" stroke-miterlimit="10" x1="190.0443726" y1="31.2196007" x2="165.8485565" y2="83.5567398"/><polyline display="inline" fill="none" stroke="#FFFFFF" stroke-width="7" stroke-linejoin="round" stroke-miterlimit="10" points="108.4352798,73.0005569 36.9559937,57.7464409 70.586731,117.4438248 13,128 "/><path display="inline" fill="#FFFFFF" d="M154.4809113,128.4652863c-2.12146-1.8066864-4.5409851-3.0347977-7.0666504-3.700058c-2.2843475-0.6017075-3.2465668-3.324295-1.8560944-5.2339859c1.5163269-2.0825577,2.6066895-4.5243378,3.1187897-7.2207718c1.8446198-9.7128983-4.5840607-19.1739578-14.2948303-21.0297928c-9.8179245-1.8763199-19.2700348,4.6027985-21.0745926,14.4174652c-0.5041428,2.7419434-0.3575516,5.4526825,0.3300171,7.9736557c0.6203918,2.2746887-1.2549591,4.4710312-3.599472,4.2213516c-2.5970306-0.2765732-5.2950516,0.0105972-7.9203339,0.9444885c-9.4020615,3.3445511-14.2932205,13.7079391-10.8771973,23.101799c3.3787155,9.2912445,13.7428665,14.1311035,23.0380173,10.7631073c2.5803604-0.934967,4.8172455-2.4002228,6.631691-4.228775c1.6658859-1.678833,4.505806-1.1566772,5.4655762,1.0049133c1.0453568,2.3543701,2.6147537,4.5194702,4.6937943,6.3111267c7.4892426,6.45401,18.8971252,5.6172333,25.3597717-1.864563C162.9634247,146.3608398,162.0784302,134.9354248,154.4809113,128.4652863z"/></g><g id="Layer_3" display="none"><rect x="-1227.9119873" y="-654.074707" display="inline" fill="#FF0000" width="1885.8239746" height="1013.5786133"/></g><g id="Layer_2"><path d="M43.8139648,62.7880859l58.1518555,12.4108887l-30.7915649,36.1563721L43.8139648,62.7880859z M163.2285156,86.6337891l18.2099609,51.1923828l-35.2285156,41.3652344l-53.4384766-9.8251953l-18.2099609-51.1923828l35.1846924-41.3143311l1.3812256,0.2947998l0.0205078-0.0959473L163.2285156,86.6337891z M154.480896,128.465271c-2.12146-1.8067017-4.5409546-3.03479-7.0666504-3.7000732c-2.2843018-0.6016846-3.246521-3.3242798-1.8560791-5.2339478c1.5162964-2.0825806,2.6066895-4.524353,3.1187744-7.2207642c1.8446045-9.7129517-4.5840454-19.1740112-14.2947998-21.0298462c-9.8179321-1.8762817-19.2700806,4.6028442-21.074585,14.4174805c-0.5041504,2.7419434-0.357605,5.4526978,0.3300171,7.9736938c0.6203613,2.2746582-1.2550049,4.4710083-3.5994873,4.2213135c-2.5970459-0.2765503-5.2950439,0.0106201-7.9203491,0.944519c-9.4020386,3.3445435-14.2932129,13.7079468-10.8771973,23.1017456c3.3787231,9.2912598,13.7428589,14.1311035,23.0380249,10.7631226c2.5803833-0.9349365,4.8172607-2.4002075,6.6317139-4.2287598c1.6658936-1.678833,4.5057983-1.1566772,5.4655762,1.0049438c1.0453491,2.3543701,2.6147461,4.5194092,4.6937866,6.3110962c7.4892578,6.4540405,18.8970947,5.6172485,25.3597412-1.864563C162.9634399,146.3608398,162.0784302,134.9354248,154.480896,128.465271z M184.6254883,144.8803101l-30.8093262,36.1767578l56.0461426,15.0874634L184.6254883,144.8803101z M113.0030518,70.2821045l50.8081055,9.3411865l22.8381348-49.4006958l-55.2891235-16.2358398L113.0030518,70.2821045z M210.3188477,48.3034668l-17.4998169-14.7458496L174.446167,73.2994995L210.3188477,48.3034668z M193.2412109,146.5341797l25.2537842,51.298584l16.6693115-29.6704712L193.2412109,146.5341797z M65.1289062,114.8857422l-29.6875-52.6976929l-21.1471558,62.0164185L65.1289062,114.8857422z M172.3730469,83.2763672l68.6175537,39.5263672l-26.6009521-68.8031616L172.3730469,83.2763672z M142.9969482,185.7180176l-49.6627197-9.1307373L88.6723633,235.43573l35.8634644,6.8979492L142.9969482,185.7180176z M106.9833984,66.1621094l16.9712524-52.0467529L72.7910767,28.2219849L106.9833984,66.1621094z M86.28125,176.9775391l-53.6486816,12.9418945l49.2924805,42.0457153L86.28125,176.9775391z M172.3284302,91.3289185l15.9190063,44.7518921l49.230835,25.3989258l4.9133301-29.7908325L172.3284302,91.3289185z M149.8623047,187.2421875l-17.5169067,53.7198486l79.1605225-37.1257324L149.8623047,187.2421875z M85.5508423,169.9527588l-17.2629395-48.5299072l-54.3517456,9.9633789l14.4726562,52.3505249L85.5508423,169.9527588z M98.6082764,67.3250122l-32.2077026-35.737854L40.2042236,54.8605957L98.6082764,67.3250122z"/></g></svg>
