<?xml version="1.0" encoding="utf-8"?><svg version="1.1" xmlns="http://www.w3.org/2000/svg" xmlns:xlink="http://www.w3.org/1999/xlink" x="0px" y="0px" viewBox="0 0 256 256" enable-background="new 0 0 256 256" xml:space="preserve"><g id="Base" display="none"><g display="inline"><path fill="#FF9000" d="M43.7147217,71.1152954c0-30.6629028,24.8571777-55.5200806,55.5200806-55.5200806c27.348877,0,50.0626221,19.7802124,54.6564941,45.8113403c-8.2062988-3.6005249-17.2611694-5.6130981-26.7814331-5.6130981c-33.0758057,0-60.6047974,24.1356201-65.9424438,55.7161865C50.4285889,101.3856201,43.7147217,87.0386963,43.7147217,71.1152954z M193.8085938,77.2439575c-5.406311,0-10.604126,0.8809814-15.4727783,2.4862671c9.7692261,11.6306763,15.6680908,26.6156006,15.6680908,42.9577637c0,19.1802368-8.1262207,36.4882202-21.1019287,48.6972046c6.3502808,2.9719849,13.4320068,4.6415405,20.9066162,4.6415405c27.2781372,0,49.3914185-22.1132812,49.3914185-49.3913574C243.2000122,99.3572388,221.086731,77.2439575,193.8085938,77.2439575z M127.1098633,189.5825195c-30.4656372,0-56.2212524-20.4794922-64.2705078-48.3890381c-12.9530029,10.1640015-21.28479,25.949646-21.28479,43.6912231c0,30.6629028,24.8571777,55.5200806,55.5200806,55.5200806s55.5200806-24.8571777,55.5200806-55.5200806c0-0.1191406-0.0082397-0.2362061-0.0089722-0.3551636C144.7283325,187.7785645,136.1271973,189.5825195,127.1098633,189.5825195z M127.1096725,62.7936172c-33.0788422,0-59.8945465,26.8157043-59.8945465,59.8945465s26.8157043,59.8945541,59.8945465,59.8945541s59.8945541-26.8157043,59.8945541-59.8945541S160.1885223,62.7936172,127.1096725,62.7936172z M161.4765625,65.3225708c4.2041016,2.5281372,8.0999756,5.5126953,11.638916,8.8717651c6.4118042-2.5391235,13.3886719-3.9501953,20.6931152-3.9501953c9.7055054,0,18.8458252,2.46521,26.8287354,6.8012695c0.0603027-1.0599365,0.0983887-2.1257935,0.0983887-3.2008667c0-30.6629028-24.8571777-55.5200806-55.5200806-55.5200806c-8.9061279,0-17.3154907,2.1087646-24.7752075,5.8359375C152.1228638,34.4296265,159.9662476,48.9682007,161.4765625,65.3225708z M61.1491699,133.7643433c-0.6035767-3.6054077-0.9338379-7.3021851-0.9338379-11.076355c0-0.9127808,0.0327148-1.8178711,0.0690918-2.7219238c-12.9450073-10.3427734-21.68927-25.710022-23.2827148-43.1193848c-14.6105957,10.0011597-24.2017212,26.7989502-24.2017212,45.8414917c0,18.9437866,9.4945068,35.6625366,23.9772949,45.6818848C40.6678467,154.1981812,49.4320679,142.0233154,61.1491699,133.7643433z M193.8085938,183.0268555c-9.6593628,0-18.7573853-2.444397-26.7132568-6.7421875c-2.416748,1.8076172-4.965271,3.4464111-7.6177979,4.9195557c0.071167,1.218811,0.1171875,2.4442139,0.1171875,3.680542c0,14.8133545-5.1888428,28.4314575-13.8306274,39.1560059c7.9003906,5.3196411,17.414917,8.4259033,27.6556396,8.4259033c27.382019,0,49.5795288-22.1975098,49.5795288-49.5795898c0-2.6116333-0.204895-5.1750488-0.5939941-7.6775513C214.0143433,180.168457,204.241272,183.0268555,193.8085938,183.0268555z"/></g></g><g id="Layer_3" display="none"><rect x="-951.9119873" y="-378.074707" display="inline" fill="#FF0000" width="1885.8239746" height="1013.5786133"/></g><g id="Layer_2"><path d="M43.7147217,71.1152954c0-30.6629028,24.8571777-55.5200806,55.5200806-55.5200806c27.348877,0,50.0626221,19.7802124,54.6564941,45.8113403c-8.2062988-3.6005249-17.2611694-5.6130981-26.7814331-5.6130981c-33.0758057,0-60.6047974,24.1356201-65.9424438,55.7161865C50.4285889,101.3856201,43.7147217,87.0386963,43.7147217,71.1152954z M193.8085938,77.2439575c-5.406311,0-10.604126,0.8809814-15.4727783,2.4862671c9.7692261,11.6306763,15.6680908,26.6156006,15.6680908,42.9577637c0,19.1802368-8.1262207,36.4882202-21.1019287,48.6972046c6.3502808,2.9719849,13.4320068,4.6415405,20.9066162,4.6415405c27.2781372,0,49.3914185-22.1132812,49.3914185-49.3913574C243.2000122,99.3572388,221.086731,77.2439575,193.8085938,77.2439575z M127.1098633,189.5825195c-30.4656372,0-56.2212524-20.4794922-64.2705078-48.3890381c-12.9530029,10.1640015-21.28479,25.949646-21.28479,43.6912231c0,30.6629028,24.8571777,55.5200806,55.5200806,55.5200806s55.5200806-24.8571777,55.5200806-55.5200806c0-0.1191406-0.0082397-0.2362061-0.0089722-0.3551636C144.7283325,187.7785645,136.1271973,189.5825195,127.1098633,189.5825195z M127.1096725,62.7936172c-33.0788422,0-59.8945465,26.8157043-59.8945465,59.8945465s26.8157043,59.8945541,59.8945465,59.8945541s59.8945541-26.8157043,59.8945541-59.8945541S160.1885223,62.7936172,127.1096725,62.7936172z M161.4765625,65.3225708c4.2041016,2.5281372,8.0999756,5.5126953,11.638916,8.8717651c6.4118042-2.5391235,13.3886719-3.9501953,20.6931152-3.9501953c9.7055054,0,18.8458252,2.46521,26.8287354,6.8012695c0.0603027-1.0599365,0.0983887-2.1257935,0.0983887-3.2008667c0-30.6629028-24.8571777-55.5200806-55.5200806-55.5200806c-8.9061279,0-17.3154907,2.1087646-24.7752075,5.8359375C152.1228638,34.4296265,159.9662476,48.9682007,161.4765625,65.3225708z M61.1491699,133.7643433c-0.6035767-3.6054077-0.9338379-7.3021851-0.9338379-11.076355c0-0.9127808,0.0327148-1.8178711,0.0690918-2.7219238c-12.9450073-10.3427734-21.68927-25.710022-23.2827148-43.1193848c-14.6105957,10.0011597-24.2017212,26.7989502-24.2017212,45.8414917c0,18.9437866,9.4945068,35.6625366,23.9772949,45.6818848C40.6678467,154.1981812,49.4320679,142.0233154,61.1491699,133.7643433z M193.8085938,183.0268555c-9.6593628,0-18.7573853-2.444397-26.7132568-6.7421875c-2.416748,1.8076172-4.965271,3.4464111-7.6177979,4.9195557c0.071167,1.218811,0.1171875,2.4442139,0.1171875,3.680542c0,14.8133545-5.1888428,28.4314575-13.8306274,39.1560059c7.9003906,5.3196411,17.414917,8.4259033,27.6556396,8.4259033c27.382019,0,49.5795288-22.1975098,49.5795288-49.5795898c0-2.6116333-0.204895-5.1750488-0.5939941-7.6775513C214.0143433,180.168457,204.241272,183.0268555,193.8085938,183.0268555z"/></g></svg>
