<?xml version="1.0" encoding="utf-8"?><svg version="1.1" xmlns="http://www.w3.org/2000/svg" xmlns:xlink="http://www.w3.org/1999/xlink" x="0px" y="0px" viewBox="0 0 256 256" enable-background="new 0 0 256 256" xml:space="preserve"><g id="Base" display="none"><g display="inline"><circle fill="#FF0000" cx="105.3483124" cy="131.3923645" r="92.5483093"/><circle fill="#FFFFFF" cx="81.4316559" cy="116.3277359" r="52.717926"/><path fill="#FF0000" d="M109.8323975,97.670372c-12.1696625-3.1055069-17.0302277,2.4634018-28.1799698-0.3818359c-11.1497116-2.8452225-8.4331894-9.5520096-20.6028557-12.6575089c-11.573452-2.9533615-21.6127586,4.9865036-24.6509018,16.8921967c-3.0381393,11.9056931,2.0753593,23.2688141,13.6488113,26.2221756c12.1696663,3.1055069,13.1205025-4.5591507,24.2702141-1.7139206c11.1497421,2.8452301,12.3429489,11.6477661,24.5126114,14.7532654c11.5734558,2.9533539,24.8266983-4.3136292,27.8648376-16.2193222C129.7332764,112.659729,121.4058533,100.6237259,109.8323975,97.670372z"/><path fill="#FF0000" d="M240.7019348,91.2717438c-4.4720459-19.5924072-28.6121368-31.91259-23.1481018-52.7341423c0.6809692-2.1868553-0.1343231-4.6508484-2.1689453-5.9419479c-11.1482391-4.3124332-13.7406158,18.5730934-12.1931,26.0464783c1.9028625,13.0267677,11.318222,26.2138939,12.1544647,38.3869286c0.2459564,14.4087524-5.4288788,21.1144257-13.6396179,23.327301c0.4122925,3.6232681,0.6316223,7.3042145,0.6316223,11.0360031c0,10.0542908-1.538559,19.7558136-4.3913269,28.882431C229.2705231,154.5681763,250.7511597,127.2489624,240.7019348,91.2717438z"/></g></g><g id="Layer_3" display="none"><rect x="-399.9119568" y="-378.074707" display="inline" fill="#FF0000" width="1885.8239746" height="1013.5786133"/></g><g id="Layer_2"><path d="M105.3483276,38.8440552c-51.1130371,0-92.5483398,41.4352417-92.5483398,92.5482788s41.4353027,92.5483398,92.5483398,92.5483398s92.5483398-41.4353027,92.5483398-92.5483398S156.4613647,38.8440552,105.3483276,38.8440552z M81.4317017,169.0456543c-29.1153564,0-52.7179565-23.6026001-52.7179565-52.7179565c0-29.1152954,23.6026001-52.7178955,52.7179565-52.7178955c29.1152954,0,52.7178955,23.6026001,52.7178955,52.7178955C134.1495972,145.4430542,110.5469971,169.0456543,81.4317017,169.0456543z M126.6951447,124.5654221c-3.0381393,11.9056931-16.2913818,19.1726761-27.8648376,16.2193222c-12.1696625-3.1054993-13.3628693-11.9080353-24.5126114-14.7532654c-11.1497116-2.8452301-12.1005478,4.8194275-24.2702141,1.7139206c-11.573452-2.9533615-16.6869507-14.3164825-13.6488113-26.2221756C39.4368134,89.6175308,49.47612,81.6776657,61.049572,84.6310272c12.1696663,3.1054993,9.4531441,9.8122864,20.6028557,12.6575089c11.1497421,2.8452377,16.0103073-2.723671,28.1799698,0.3818359C121.4058533,100.6237259,129.7332764,112.659729,126.6951447,124.5654221z M197.9469299,160.2747955c2.8527679-9.1266174,4.3913269-18.8281403,4.3913269-28.882431c0-3.7317886-0.2193298-7.412735-0.6316223-11.0360031c8.2107391-2.2128754,13.8855743-8.9185486,13.6396179-23.327301c-0.8362427-12.1730347-10.2516022-25.3601608-12.1544647-38.3869286c-1.5475159-7.4733849,1.0448608-30.3589115,12.1931-26.0464783c2.0346222,1.2910995,2.8499146,3.7550926,2.1689453,5.9419479c-5.464035,20.8215523,18.6760559,33.1417351,23.1481018,52.7341423C250.7511597,127.2489624,229.2705231,154.5681763,197.9469299,160.2747955z"/></g></svg>
