<svg xmlns="http://www.w3.org/2000/svg" viewBox="0 0 512 512" style="height: 512px; width: 512px;"><path d="M0 0h512v512H0z" fill="#000" fill-opacity="1"></path><g class="" transform="translate(0,0)" style=""><path d="M 256 23 C 127.4 23 23 127.4 23 256 s 104.4 233 233 233 s 233 -104.4 233 -233 S 384.6 23 256 23 z m 0 18 c 118.8 0 215 96.2 215 215 s -96.2 215 -215 215 S 41 374.8 41 256 S 137.2 41 256 41 z m -26.2 30.98 c -31.1 8.77 -64.1 25.12 -91 48.92 c 7.6 4.3 15.1 9.1 22.4 14.4 c 25.1 -23.5 57.6 -42.36 98.3 -51.26 c -11.1 -6.71 -22 -10.88 -29.7 -12.06 z z M 125.3 134.1 c -20.8 22.4 -36.08 50.3 -41.05 83.4 c 2.11 12.3 5.86 22.7 10.71 31.6 c 6.74 -26.9 19.74 -57.2 40.54 -85 c 4 -5.4 8.3 -10.6 12.9 -15.7 c -7.5 -5.5 -15.3 -10.2 -23.1 -14.3 z z M 444 273.5 c -32.6 72.6 -111.1 153.4 -219 156 c 8.1 9.1 49.8 18.1 76.5 9 c 93.4 -31.8 129.1 -119.3 142.5 -165 z" fill="#fff" fill-opacity="1"></path></g><g font-family="Arial, Helvetica, sans-serif" font-size="220" font-style="normal" font-weight="bold" text-anchor="middle" text-decoration=" rgba(255, 255, 255, 1)" class="" transform="translate(256,340)" style=""><g><text stroke="rgba(0, 0, 0, 0.03)" stroke-width="55"><tspan x="0" y="0">▯</tspan></text><text fill="rgba(255, 255, 255, 1)"><tspan x="0" y="0">▯</tspan></text></g></g></svg>
